<?xml version="1.0" encoding="utf-8"?><svg xml:space="preserve" viewBox="0 0 100 100" y="0" x="0" xmlns="http://www.w3.org/2000/svg" id="圖層_1" version="1.1" width="200px" height="200px" xmlns:xlink="http://www.w3.org/1999/xlink" style="width:100%;height:100%;background-size:initial;background-repeat-y:initial;background-repeat-x:initial;background-position-y:initial;background-position-x:initial;background-origin:initial;background-color:initial;background-clip:initial;background-attachment:initial;" >
<g class="ldl-scale" style="transform-origin:50% 50%;transform:rotate(0deg) scale(0.8, 0.8);" >
	<path stroke-miterlimit="10" stroke-width="3.5" stroke="#333" fill="#f8b26a" d="M26.278 60.082v7.208H19.07v7.208H10l1.506 13.62 14.047 1.553 38.81-38.81c4.308-4.308 4.308-11.293 0-15.601h0c-4.308-4.308-11.292-4.308-15.6 0L33.486 50.538v9.544h-7.208z" style="stroke:rgb(51, 51, 51);fill:rgb(248, 178, 106);" ></path>
	<path d="M23.096 79.308l32.527-32.527 3.535 3.535L29.46 80.015z" opacity=".2" style="" ></path>
	<path stroke-miterlimit="10" stroke-width="3.5" stroke="#333" fill="#f8b26a" d="M82.735 52.672c9.687-9.687 9.687-25.392 0-35.078-9.687-9.687-25.392-9.687-35.078 0-9.687 9.687-9.687 25.392 0 35.078 9.687 9.687 25.392 9.687 35.078 0zM66.277 24.681a6.626 6.626 0 1 1 9.37 9.372 6.626 6.626 0 0 1-9.37-9.372z" style="stroke:rgb(51, 51, 51);fill:rgb(248, 178, 106);" ></path>
	<path stroke-miterlimit="10" stroke-width="3.5" stroke="#fff" fill="#f8b26a" stroke-linecap="round" d="M55.987 17.95c-.739.397-1.458.844-2.152 1.343" style="stroke:rgb(255, 255, 255);fill:rgb(248, 178, 106);" ></path>
	<path stroke-miterlimit="10" stroke-width="3.5" stroke="#fff" fill="#f8b26a" stroke-linecap="round" d="M72.693 17.137a19.56 19.56 0 0 0-10.941-1.189" style="stroke:rgb(255, 255, 255);fill:rgb(248, 178, 106);" ></path>
</g><!-- generated by https://loading.io/ -->
<animateTransform attributeType="XML" attributeName="transform" type="scale" values="1;1.2;1" additive="sum" begin="0s" dur="1s" repeatCount="indefinite"/>
</svg>