<svg id="svg" version="1.1" xmlns="http://www.w3.org/2000/svg" xmlns:xlink="http://www.w3.org/1999/xlink" width="400" height="400" viewBox="0, 0, 400,400"><g id="svgg"><path id="path0" d="M155.716 22.886 C 155.688 27.003,155.550 30.558,155.409 30.786 C 154.955 31.521,129.629 31.340,129.345 30.600 C 129.154 30.103,128.061 30.000,122.957 30.000 C 117.751 30.000,116.800 30.093,116.800 30.600 C 116.800 31.121,115.111 31.200,104.000 31.200 C 92.889 31.200,91.200 31.121,91.200 30.600 C 91.200 29.883,81.438 29.692,81.000 30.400 C 80.864 30.620,80.313 30.800,79.776 30.800 C 79.239 30.800,78.800 30.980,78.800 31.200 C 78.800 31.420,78.607 31.600,78.371 31.600 C 77.868 31.600,77.197 32.285,76.500 33.510 C 76.115 34.188,76.000 40.155,76.000 59.543 L 76.000 84.697 58.178 84.994 C 48.376 85.157,33.166 85.157,24.378 84.995 C 12.622 84.777,8.400 84.818,8.400 85.149 C 8.400 85.397,7.977 85.600,7.459 85.600 C 6.942 85.600,5.954 86.140,5.263 86.800 C 4.572 87.460,3.813 88.000,3.575 88.000 C 3.034 88.000,2.240 88.838,2.075 89.584 C 2.006 89.895,1.556 90.491,1.075 90.908 L 0.200 91.667 0.200 113.900 C 0.200 131.331,0.308 136.169,0.700 136.300 C 0.975 136.392,1.200 136.728,1.200 137.047 C 1.200 138.313,5.373 141.600,6.980 141.600 C 7.321 141.600,7.600 141.780,7.600 142.000 C 7.600 142.220,8.410 142.400,9.400 142.400 C 10.390 142.400,11.200 142.580,11.200 142.800 C 11.200 143.544,24.669 143.318,24.957 142.569 C 25.284 141.717,374.816 141.847,375.100 142.700 C 375.311 143.333,388.800 143.432,388.800 142.800 C 388.800 142.580,389.610 142.400,390.600 142.400 C 391.590 142.400,392.400 142.220,392.400 142.000 C 392.400 141.780,392.679 141.600,393.020 141.600 C 394.627 141.600,398.800 138.313,398.800 137.047 C 398.800 136.728,399.025 136.392,399.300 136.300 C 399.692 136.169,399.800 131.331,399.800 113.900 L 399.800 91.667 398.900 90.887 C 398.405 90.457,398.000 89.878,398.000 89.600 C 398.000 89.025,396.015 87.201,395.388 87.200 C 395.162 87.200,394.717 86.840,394.400 86.400 C 394.061 85.930,393.365 85.600,392.712 85.600 C 392.100 85.600,391.600 85.397,391.600 85.149 C 391.600 84.818,387.378 84.777,375.622 84.995 C 366.834 85.157,351.624 85.157,341.822 84.994 L 324.000 84.697 324.000 59.348 C 324.000 42.716,323.862 34.000,323.600 34.000 C 323.380 34.000,323.200 33.722,323.200 33.382 C 323.200 32.490,321.567 31.023,320.400 30.865 C 319.850 30.791,319.229 30.566,319.020 30.365 C 318.317 29.690,308.800 29.908,308.800 30.600 C 308.800 31.121,307.111 31.200,296.000 31.200 C 284.889 31.200,283.200 31.121,283.200 30.600 C 283.200 29.704,270.999 29.704,270.655 30.600 C 270.309 31.502,245.148 31.502,244.400 30.600 C 244.000 30.118,242.780 30.000,238.194 30.000 C 233.489 30.000,232.445 30.105,232.255 30.600 C 232.057 31.116,230.231 31.200,219.200 31.200 C 208.169 31.200,206.343 31.116,206.145 30.600 C 205.954 30.104,204.888 30.000,200.000 30.000 C 195.112 30.000,194.046 30.104,193.855 30.600 C 193.657 31.116,191.831 31.200,180.800 31.200 C 169.769 31.200,167.943 31.116,167.745 30.600 C 167.555 30.105,166.507 30.000,161.766 30.000 L 156.018 30.000 155.892 22.700 L 155.767 15.400 155.716 22.886 M166.681 108.082 C 171.306 110.073,171.864 116.795,167.588 119.006 C 162.611 121.580,156.855 116.596,158.967 111.541 C 160.268 108.426,163.802 106.842,166.681 108.082 M191.008 108.584 C 196.509 111.807,194.523 119.597,188.200 119.597 C 181.864 119.597,179.869 111.399,185.483 108.436 C 187.515 107.364,188.994 107.403,191.008 108.584 M214.432 108.416 C 220.136 111.327,218.190 119.597,211.800 119.597 C 206.582 119.597,203.800 113.621,207.300 109.930 C 209.615 107.489,211.733 107.039,214.432 108.416 M237.659 108.167 C 243.741 110.708,242.047 119.593,235.480 119.599 C 231.641 119.601,229.600 117.551,229.600 113.689 C 229.600 109.286,233.668 106.499,237.659 108.167 M10.000 353.200 C 10.000 353.420,9.100 353.600,8.000 353.600 C 6.900 353.600,6.000 353.780,6.000 354.000 C 6.000 354.220,5.718 354.400,5.374 354.400 C 5.030 354.400,3.725 355.423,2.474 356.674 L 0.200 358.948 0.200 371.213 L 0.200 383.477 2.554 385.739 C 4.061 387.187,5.248 388.000,5.854 388.000 C 6.374 388.000,6.800 388.180,6.800 388.400 C 6.800 388.666,71.467 388.800,200.000 388.800 C 328.533 388.800,393.200 388.666,393.200 388.400 C 393.200 388.180,393.626 388.000,394.146 388.000 C 394.752 388.000,395.939 387.187,397.446 385.739 L 399.800 383.477 399.800 371.172 C 399.800 359.233,399.775 358.846,398.972 358.134 C 398.517 357.730,398.028 357.085,397.885 356.700 C 397.742 356.315,397.389 356.000,397.101 356.000 C 396.813 356.000,396.317 355.640,396.000 355.200 C 395.683 354.760,395.103 354.400,394.712 354.400 C 394.320 354.400,394.000 354.220,394.000 354.000 C 394.000 353.780,393.201 353.600,392.224 353.600 C 391.247 353.600,390.336 353.420,390.200 353.200 C 389.760 352.488,375.332 352.679,375.055 353.400 C 374.705 354.314,25.295 354.314,24.945 353.400 C 24.667 352.677,10.000 352.481,10.000 353.200 " stroke="none" fill="#56666e" fill-rule="evenodd"></path><path id="path1" d="M186.694 166.851 C 185.184 167.977,184.380 169.782,181.198 179.200 C 179.850 183.189,178.935 185.599,178.665 185.868 C 178.519 186.014,178.400 186.517,178.400 186.987 C 178.400 187.456,178.257 188.011,178.082 188.220 C 177.907 188.429,177.535 189.320,177.255 190.200 C 176.724 191.874,176.150 193.322,175.553 194.495 C 175.359 194.877,175.200 195.541,175.200 195.971 C 175.200 196.401,175.020 196.864,174.800 197.000 C 174.580 197.136,174.400 197.599,174.400 198.029 C 174.400 198.459,174.220 199.168,174.000 199.605 C 173.780 200.042,173.420 200.758,173.200 201.195 C 172.980 201.632,172.800 202.316,172.800 202.715 C 172.800 203.114,172.657 203.611,172.482 203.820 C 172.307 204.029,171.935 204.920,171.655 205.800 C 171.376 206.680,170.990 207.760,170.798 208.200 C 170.461 208.971,169.321 212.211,165.944 222.000 C 165.071 224.530,164.198 226.960,164.005 227.400 C 163.811 227.840,163.423 228.920,163.143 229.800 C 162.863 230.680,162.523 231.580,162.389 231.800 C 162.254 232.020,161.900 233.010,161.602 234.000 C 161.305 234.990,160.912 235.971,160.730 236.180 C 160.549 236.389,160.400 236.886,160.400 237.285 C 160.400 237.684,160.220 238.368,160.000 238.805 C 159.780 239.242,159.420 239.958,159.200 240.395 C 158.980 240.832,158.800 241.464,158.800 241.800 C 158.800 242.136,158.620 242.768,158.400 243.205 C 158.180 243.642,157.820 244.358,157.600 244.795 C 157.380 245.232,157.200 245.941,157.200 246.371 C 157.200 246.801,157.056 247.242,156.879 247.351 C 156.703 247.460,156.307 248.472,156.000 249.600 C 155.693 250.728,155.297 251.740,155.121 251.849 C 154.944 251.958,154.800 252.457,154.800 252.957 C 154.800 253.457,154.677 253.990,154.526 254.141 C 152.237 256.430,153.017 261.875,155.890 263.661 L 157.400 264.600 173.585 264.721 C 184.312 264.802,189.943 264.987,190.285 265.270 C 190.858 265.746,190.973 267.233,190.482 267.820 C 190.307 268.029,189.935 268.920,189.655 269.800 C 189.376 270.680,188.992 271.760,188.802 272.200 C 188.436 273.049,186.974 277.173,185.399 281.800 C 184.875 283.340,183.706 286.670,182.801 289.200 C 181.897 291.730,180.887 294.610,180.558 295.600 C 180.229 296.590,179.807 297.760,179.620 298.200 C 177.982 302.063,175.051 309.676,174.153 312.400 C 173.827 313.390,173.401 314.560,173.206 315.000 C 173.012 315.440,172.623 316.520,172.343 317.400 C 172.063 318.280,171.723 319.180,171.589 319.400 C 171.454 319.620,171.099 320.610,170.800 321.600 C 170.501 322.590,170.088 323.623,169.882 323.897 C 169.009 325.055,169.394 328.376,170.532 329.514 L 171.618 330.600 180.055 330.600 L 188.491 330.600 189.762 329.130 C 190.461 328.322,191.291 327.152,191.607 326.530 C 191.923 325.909,193.214 323.842,194.475 321.939 C 195.737 320.035,197.181 317.768,197.684 316.900 C 198.188 316.032,199.950 313.222,201.600 310.655 C 203.250 308.087,206.170 303.515,208.090 300.493 C 210.009 297.472,211.764 294.783,211.990 294.517 C 212.215 294.251,212.400 293.942,212.400 293.831 C 212.400 293.719,213.595 291.776,215.056 289.514 C 216.517 287.251,218.114 284.770,218.607 284.000 C 219.099 283.230,221.054 280.206,222.951 277.279 C 224.848 274.353,226.400 271.877,226.400 271.776 C 226.400 271.676,227.545 269.840,228.945 267.697 C 230.344 265.554,233.432 260.740,235.806 257.000 C 238.180 253.260,241.340 248.310,242.827 246.000 C 247.536 238.687,247.983 237.259,246.458 234.394 C 244.789 231.256,244.149 231.133,230.600 231.328 C 212.409 231.591,211.195 230.353,216.154 216.600 C 217.424 213.080,218.666 209.570,218.915 208.800 C 219.163 208.030,219.477 207.220,219.611 207.000 C 219.746 206.780,220.101 205.790,220.400 204.800 C 220.699 203.810,221.059 202.820,221.200 202.600 C 221.341 202.380,221.700 201.390,221.998 200.400 C 222.295 199.410,222.688 198.429,222.870 198.220 C 223.051 198.011,223.200 197.514,223.200 197.115 C 223.200 196.716,223.380 196.032,223.600 195.595 C 223.820 195.158,224.180 194.442,224.400 194.005 C 224.620 193.568,224.800 192.884,224.800 192.485 C 224.800 192.086,224.949 191.589,225.130 191.380 C 225.312 191.171,225.705 190.190,226.002 189.200 C 226.300 188.210,226.659 187.220,226.800 187.000 C 226.941 186.780,227.300 185.790,227.598 184.800 C 227.895 183.810,228.288 182.829,228.470 182.620 C 228.651 182.411,228.800 181.914,228.800 181.515 C 228.800 181.116,228.971 180.477,229.181 180.095 C 232.459 174.115,232.467 168.594,229.201 166.664 C 227.265 165.520,188.247 165.692,186.694 166.851 " stroke="none" fill="#f19e2b" fill-rule="evenodd"></path><path id="path2" d="M91.700 12.789 C 90.663 14.450,91.020 30.658,92.100 30.948 C 93.278 31.264,114.728 31.262,115.907 30.946 L 116.815 30.703 116.707 21.451 L 116.600 12.200 104.400 12.094 C 92.572 11.992,92.184 12.013,91.700 12.789 M129.700 13.083 C 129.352 13.833,129.200 16.626,129.200 22.290 L 129.200 30.420 130.226 30.810 C 131.828 31.419,154.088 31.320,154.910 30.700 C 155.714 30.093,156.002 15.047,155.247 13.100 L 154.820 12.000 142.510 12.003 L 130.200 12.006 129.700 13.083 M168.262 12.731 C 167.690 13.364,167.600 14.613,167.600 21.941 L 167.600 30.420 168.626 30.810 C 169.973 31.322,191.627 31.322,192.974 30.810 L 194.000 30.420 194.000 22.196 C 194.000 15.299,193.896 13.813,193.354 12.986 L 192.708 12.000 180.816 12.000 C 169.803 12.000,168.875 12.054,168.262 12.731 M206.646 12.986 C 206.104 13.813,206.000 15.299,206.000 22.196 L 206.000 30.420 207.026 30.810 C 208.373 31.322,230.027 31.322,231.374 30.810 L 232.400 30.420 232.400 21.872 C 232.400 10.821,233.986 12.000,219.115 12.000 L 207.292 12.000 206.646 12.986 M244.605 13.449 C 243.510 16.071,243.737 29.770,244.889 30.577 C 245.935 31.310,267.917 31.516,269.774 30.810 L 270.800 30.420 270.800 22.290 C 270.800 16.626,270.648 13.833,270.300 13.083 L 269.800 12.006 257.505 12.003 L 245.211 12.000 244.605 13.449 M283.467 12.267 C 283.320 12.413,283.200 16.628,283.200 21.632 L 283.200 30.730 284.700 30.950 C 285.525 31.071,291.240 31.042,297.400 30.885 L 308.600 30.600 308.711 22.200 C 308.789 16.257,308.682 13.537,308.343 12.900 L 307.865 12.000 295.799 12.000 C 289.163 12.000,283.613 12.120,283.467 12.267 M163.101 108.585 C 157.246 110.265,158.439 119.193,164.520 119.199 C 170.899 119.205,172.140 110.278,166.000 108.550 C 165.052 108.283,164.116 108.294,163.101 108.585 M186.600 108.543 C 180.755 110.767,182.021 119.200,188.200 119.200 C 194.239 119.200,195.747 110.049,189.937 108.658 C 189.353 108.518,188.633 108.332,188.337 108.245 C 188.042 108.158,187.260 108.292,186.600 108.543 M210.200 108.527 C 204.316 110.696,205.591 119.200,211.800 119.200 C 216.751 119.200,219.135 112.719,215.331 109.600 C 214.664 109.053,211.981 107.941,211.572 108.043 C 211.477 108.066,210.860 108.284,210.200 108.527 M233.956 108.578 C 227.845 110.365,229.113 119.205,235.480 119.199 C 239.347 119.195,241.824 115.194,240.255 111.487 C 239.220 109.042,236.564 107.815,233.956 108.578 M25.067 142.667 C 24.920 142.813,24.800 188.267,24.800 243.676 L 24.800 344.418 151.100 344.283 C 246.803 344.181,277.933 344.033,279.600 343.673 C 280.810 343.411,282.880 343.001,284.200 342.762 C 285.520 342.522,287.050 342.184,287.600 342.010 C 288.150 341.835,289.410 341.471,290.400 341.201 C 291.390 340.930,292.560 340.566,293.000 340.393 C 293.440 340.219,295.330 339.483,297.200 338.758 C 314.751 331.955,330.306 316.724,337.805 299.000 C 338.177 298.120,338.636 297.040,338.824 296.600 C 339.455 295.126,341.301 289.415,341.604 288.000 C 344.018 276.725,344.000 277.184,344.000 225.784 L 344.000 179.200 333.472 179.200 L 322.944 179.200 321.301 177.794 C 318.519 175.412,318.126 172.104,320.286 169.258 C 322.039 166.949,322.869 166.800,333.987 166.800 L 344.000 166.800 344.000 155.233 C 344.000 148.871,343.891 143.381,343.757 143.033 C 343.504 142.372,25.726 142.007,25.067 142.667 M64.355 154.777 C 66.872 156.061,67.340 157.164,67.585 162.400 L 67.800 167.000 72.200 167.200 C 78.583 167.490,80.558 168.863,80.567 173.018 C 80.576 177.197,78.699 178.526,72.400 178.800 L 67.800 179.000 67.591 183.610 C 67.232 191.550,62.277 194.862,57.662 190.249 L 56.200 188.788 56.000 183.894 L 55.800 179.000 51.200 178.800 C 46.289 178.586,45.476 178.319,43.843 176.378 C 41.896 174.064,42.705 169.932,45.460 168.122 C 46.300 167.570,47.645 167.353,51.179 167.200 L 55.800 167.000 56.000 162.379 C 56.315 155.094,59.427 152.263,64.355 154.777 M229.200 165.702 C 233.008 167.611,233.610 174.455,230.403 179.400 C 230.261 179.620,229.899 180.610,229.600 181.600 C 229.301 182.590,228.941 183.580,228.800 183.800 C 228.659 184.020,228.300 185.010,228.002 186.000 C 227.705 186.990,227.312 187.971,227.130 188.180 C 226.949 188.389,226.800 188.886,226.800 189.285 C 226.800 189.684,226.620 190.368,226.400 190.805 C 226.180 191.242,225.820 191.958,225.600 192.395 C 225.380 192.832,225.200 193.464,225.200 193.800 C 225.200 194.136,225.020 194.768,224.800 195.205 C 224.580 195.642,224.220 196.358,224.000 196.795 C 223.780 197.232,223.600 197.916,223.600 198.315 C 223.600 198.714,223.457 199.211,223.282 199.420 C 223.107 199.629,222.735 200.520,222.455 201.400 C 222.176 202.280,221.788 203.360,221.593 203.800 C 221.399 204.240,220.434 206.940,219.449 209.800 C 218.464 212.660,216.927 217.070,216.033 219.600 C 214.237 224.687,214.109 225.693,215.024 227.529 C 216.512 230.511,216.673 230.542,230.564 230.573 C 241.351 230.596,243.159 230.688,244.200 231.262 C 245.637 232.054,247.200 233.783,247.200 234.579 C 247.200 234.895,247.380 235.264,247.600 235.400 C 247.820 235.536,248.000 236.346,248.000 237.200 C 248.000 238.054,247.820 238.864,247.600 239.000 C 247.380 239.136,247.200 239.597,247.200 240.024 C 247.200 240.451,247.020 240.800,246.800 240.800 C 246.580 240.800,246.400 240.988,246.400 241.218 C 246.400 241.448,245.500 242.970,244.400 244.600 C 243.300 246.230,242.400 247.752,242.400 247.982 C 242.400 248.212,242.220 248.400,242.000 248.400 C 241.780 248.400,241.600 248.670,241.600 249.000 C 241.600 249.330,241.420 249.600,241.200 249.600 C 240.980 249.600,240.800 249.774,240.800 249.986 C 240.800 250.199,239.605 252.224,238.144 254.486 C 236.683 256.749,235.096 259.230,234.616 260.000 C 234.136 260.770,232.542 263.244,231.072 265.497 C 229.602 267.750,228.400 269.775,228.400 269.997 C 228.400 270.219,228.220 270.400,228.000 270.400 C 227.780 270.400,227.600 270.636,227.600 270.925 C 227.600 271.213,227.285 271.798,226.900 272.225 C 226.515 272.651,225.945 273.495,225.632 274.100 C 225.320 274.705,224.915 275.200,224.732 275.200 C 224.550 275.200,224.400 275.383,224.400 275.606 C 224.400 275.830,223.794 276.955,223.053 278.106 C 222.313 279.258,220.066 282.810,218.060 286.000 C 216.055 289.190,214.276 291.980,214.107 292.200 C 213.938 292.420,213.545 293.095,213.232 293.700 C 212.920 294.305,212.515 294.800,212.332 294.800 C 212.150 294.800,212.000 294.988,212.000 295.218 C 212.000 295.448,211.100 296.970,210.000 298.600 C 208.900 300.230,208.000 301.752,208.000 301.982 C 208.000 302.212,207.820 302.400,207.600 302.400 C 207.380 302.400,207.200 302.636,207.200 302.925 C 207.200 303.213,206.840 303.836,206.400 304.308 C 205.960 304.780,205.600 305.240,205.600 305.330 C 205.600 305.573,198.193 317.350,195.947 320.679 C 194.876 322.265,194.000 323.752,194.000 323.982 C 194.000 324.212,193.820 324.400,193.600 324.400 C 193.380 324.400,193.200 324.636,193.200 324.925 C 193.200 325.213,192.840 325.836,192.400 326.308 C 191.960 326.780,191.600 327.319,191.600 327.505 C 191.600 328.112,189.028 330.604,187.881 331.108 C 186.220 331.838,173.727 331.779,171.941 331.033 C 168.796 329.719,167.578 325.489,169.726 323.341 C 169.877 323.190,170.000 322.657,170.000 322.157 C 170.000 321.657,170.180 321.136,170.400 321.000 C 170.620 320.864,170.800 320.401,170.800 319.971 C 170.800 319.216,170.944 318.826,171.938 316.905 C 172.192 316.413,172.400 315.736,172.400 315.400 C 172.400 315.064,172.580 314.432,172.800 313.995 C 173.020 313.558,173.380 312.842,173.600 312.405 C 173.820 311.968,174.000 311.248,174.000 310.805 C 174.000 310.362,174.180 310.000,174.400 310.000 C 174.620 310.000,174.800 309.561,174.800 309.024 C 174.800 308.487,174.980 307.936,175.200 307.800 C 175.420 307.664,175.600 307.201,175.600 306.771 C 175.600 306.341,175.759 305.677,175.953 305.295 C 176.148 304.913,176.529 304.060,176.800 303.400 C 177.071 302.740,177.452 301.887,177.647 301.505 C 177.841 301.123,178.000 300.484,178.000 300.085 C 178.000 299.686,178.143 299.189,178.318 298.980 C 178.493 298.771,178.865 297.880,179.145 297.000 C 179.424 296.120,179.809 295.040,180.000 294.600 C 180.191 294.160,180.712 292.720,181.158 291.400 C 181.604 290.080,182.705 286.930,183.606 284.400 C 184.507 281.870,185.513 278.990,185.842 278.000 C 186.171 277.010,186.593 275.840,186.780 275.400 C 186.966 274.960,187.336 273.970,187.600 273.200 C 188.101 271.741,188.396 270.956,189.150 269.081 C 190.756 265.087,191.237 265.200,172.547 265.200 C 155.350 265.200,155.292 265.193,153.687 262.906 C 151.871 260.318,151.775 258.656,153.229 255.000 C 153.404 254.560,153.777 253.480,154.057 252.600 C 154.337 251.720,154.677 250.820,154.811 250.600 C 154.946 250.380,155.300 249.390,155.598 248.400 C 155.895 247.410,156.288 246.429,156.470 246.220 C 156.651 246.011,156.800 245.514,156.800 245.115 C 156.800 244.716,157.008 243.987,157.262 243.495 C 158.234 241.616,158.400 241.193,158.400 240.600 C 158.400 240.264,158.580 239.632,158.800 239.195 C 159.020 238.758,159.380 238.042,159.600 237.605 C 159.820 237.168,160.000 236.484,160.000 236.085 C 160.000 235.686,160.143 235.189,160.318 234.980 C 160.493 234.771,160.865 233.880,161.145 233.000 C 161.424 232.120,161.812 231.040,162.007 230.600 C 162.201 230.160,163.166 227.460,164.150 224.600 C 165.135 221.740,166.781 217.060,167.810 214.200 C 168.838 211.340,169.773 208.592,169.888 208.094 C 170.002 207.596,170.254 207.090,170.448 206.970 C 170.641 206.851,170.800 206.401,170.800 205.971 C 170.800 205.541,170.980 204.832,171.200 204.395 C 171.420 203.958,171.780 203.242,172.000 202.805 C 172.220 202.368,172.400 201.659,172.400 201.229 C 172.400 200.799,172.544 200.358,172.721 200.249 C 172.897 200.140,173.293 199.128,173.600 198.000 C 173.907 196.872,174.303 195.860,174.479 195.751 C 174.656 195.642,174.800 195.113,174.800 194.576 C 174.800 194.039,174.980 193.600,175.200 193.600 C 175.420 193.600,175.600 193.161,175.600 192.624 C 175.600 192.087,175.780 191.536,176.000 191.400 C 176.220 191.264,176.400 190.749,176.400 190.256 C 176.400 189.763,176.543 189.189,176.718 188.980 C 176.893 188.771,177.265 187.880,177.545 187.000 C 177.824 186.120,178.212 185.040,178.406 184.600 C 178.601 184.160,179.030 182.990,179.360 182.000 C 184.074 167.876,184.957 166.220,188.317 165.190 C 190.671 164.468,227.663 164.931,229.200 165.702 " stroke="none" fill="#d5d6e0" fill-rule="evenodd"></path><path id="path3" d="M25.700 56.938 C 24.802 57.827,24.800 57.852,24.800 71.514 L 24.800 85.200 40.767 85.200 C 49.549 85.200,57.019 85.091,57.367 84.957 C 58.365 84.574,58.318 59.438,57.316 57.989 C 55.883 55.915,56.569 55.998,41.129 56.024 C 26.663 56.048,26.596 56.052,25.700 56.938 M59.235 154.719 C 56.697 155.985,56.224 157.099,56.000 162.328 L 55.800 167.000 51.400 167.200 C 45.165 167.483,42.798 169.069,42.801 172.959 C 42.805 177.003,44.999 178.532,51.179 178.800 L 55.800 179.000 56.000 183.619 C 56.265 189.738,57.805 191.995,61.720 191.999 C 65.757 192.002,67.257 189.860,67.568 183.643 L 67.800 179.000 72.400 178.800 C 78.643 178.529,80.461 177.273,80.523 173.189 C 80.588 168.853,78.213 167.200,71.914 167.200 L 67.699 167.200 67.530 162.483 C 67.277 155.377,64.023 152.331,59.235 154.719 " stroke="none" fill="#7eb6f8" fill-rule="evenodd"></path><path id="path4" d="M188.510 165.578 C 185.697 166.269,184.737 167.557,182.827 173.200 C 182.343 174.630,181.788 176.160,181.594 176.600 C 181.399 177.040,180.971 178.210,180.642 179.200 C 180.313 180.190,179.296 183.070,178.382 185.600 C 177.468 188.130,176.572 190.650,176.391 191.200 C 176.210 191.750,175.325 194.252,174.423 196.759 C 173.522 199.266,172.874 201.407,172.983 201.516 C 173.092 201.625,173.289 201.374,173.420 200.957 C 173.551 200.541,173.825 199.887,174.029 199.505 C 174.233 199.123,174.400 198.459,174.400 198.029 C 174.400 197.599,174.580 197.136,174.800 197.000 C 175.020 196.864,175.200 196.401,175.200 195.971 C 175.200 195.541,175.359 194.877,175.553 194.495 C 176.150 193.322,176.724 191.874,177.255 190.200 C 177.535 189.320,177.907 188.429,178.082 188.220 C 178.257 188.011,178.400 187.456,178.400 186.987 C 178.400 186.517,178.519 186.014,178.665 185.868 C 178.935 185.599,179.850 183.189,181.198 179.200 C 184.424 169.654,185.192 167.945,186.761 166.828 C 188.390 165.668,227.260 165.518,229.201 166.664 C 232.467 168.594,232.459 174.115,229.181 180.095 C 228.784 180.818,228.645 182.288,229.007 181.926 C 229.465 181.469,232.400 172.365,232.400 171.404 C 232.400 169.679,231.364 167.766,229.774 166.553 L 228.263 165.400 209.032 165.330 C 198.454 165.292,189.220 165.403,188.510 165.578 M228.311 182.673 C 228.218 182.853,227.897 183.810,227.599 184.800 C 227.300 185.790,226.941 186.780,226.800 187.000 C 226.659 187.220,226.300 188.210,226.002 189.200 C 225.705 190.190,225.312 191.171,225.130 191.380 C 224.949 191.589,224.800 192.086,224.800 192.485 C 224.800 193.187,224.649 193.586,223.662 195.495 C 223.408 195.987,223.200 196.716,223.200 197.115 C 223.200 197.514,223.051 198.011,222.870 198.220 C 222.688 198.429,222.295 199.410,221.998 200.400 C 221.700 201.390,221.341 202.380,221.200 202.600 C 221.059 202.820,220.699 203.810,220.400 204.800 C 220.101 205.790,219.746 206.780,219.611 207.000 C 219.477 207.220,219.163 208.030,218.915 208.800 C 218.666 209.570,217.446 213.042,216.203 216.516 C 214.961 219.990,214.016 223.049,214.104 223.313 C 214.193 223.578,214.640 222.625,215.099 221.197 C 215.558 219.769,216.502 217.070,217.198 215.200 C 217.894 213.330,218.795 210.810,219.200 209.600 C 219.605 208.390,220.507 205.870,221.204 204.000 C 221.901 202.130,222.618 200.150,222.797 199.600 C 222.977 199.050,224.403 195.018,225.967 190.639 C 228.300 184.108,229.263 180.836,228.311 182.673 M171.450 204.970 C 170.842 206.680,170.444 208.177,170.563 208.297 C 170.683 208.417,170.892 208.174,171.028 207.757 C 171.771 205.477,172.121 204.515,172.487 203.739 C 172.710 203.266,172.817 202.650,172.723 202.370 C 172.630 202.089,172.057 203.259,171.450 204.970 M169.486 210.491 C 169.139 211.431,168.585 213.010,168.254 214.000 C 167.923 214.990,167.089 217.330,166.400 219.200 C 165.711 221.070,164.880 223.410,164.553 224.400 C 164.227 225.390,163.798 226.560,163.600 227.000 C 163.402 227.440,162.978 228.610,162.658 229.600 C 162.338 230.590,161.800 232.120,161.464 233.000 C 159.476 238.197,157.202 244.935,157.377 245.110 C 157.489 245.223,157.689 244.974,157.820 244.557 C 157.951 244.141,158.225 243.487,158.429 243.105 C 158.633 242.723,158.800 242.136,158.800 241.800 C 158.800 241.207,158.966 240.784,159.938 238.905 C 160.192 238.413,160.400 237.684,160.400 237.285 C 160.400 236.886,160.549 236.389,160.730 236.180 C 160.912 235.971,161.305 234.990,161.602 234.000 C 161.900 233.010,162.254 232.020,162.389 231.800 C 162.523 231.580,162.863 230.680,163.143 229.800 C 163.423 228.920,163.811 227.840,164.005 227.400 C 164.198 226.960,165.071 224.530,165.944 222.000 C 166.817 219.470,168.192 215.540,168.999 213.267 C 169.807 210.994,170.388 209.055,170.292 208.958 C 170.195 208.861,169.832 209.551,169.486 210.491 M213.789 225.703 C 214.173 229.420,216.927 231.640,221.035 231.545 L 223.400 231.491 221.000 231.196 C 216.792 230.679,214.687 229.101,214.183 226.088 C 213.801 223.803,213.570 223.576,213.789 225.703 M228.300 231.099 C 230.775 231.169,234.825 231.169,237.300 231.099 C 239.775 231.028,237.750 230.971,232.800 230.971 C 227.850 230.971,225.825 231.028,228.300 231.099 M243.800 231.852 C 244.460 232.193,245.404 232.951,245.898 233.536 C 246.392 234.121,246.797 234.388,246.798 234.129 C 246.801 233.493,243.971 231.196,243.209 231.216 C 242.874 231.225,243.140 231.511,243.800 231.852 M247.000 237.200 C 247.000 238.478,247.132 239.316,247.294 239.062 C 247.456 238.808,247.588 237.970,247.588 237.200 C 247.588 236.430,247.456 235.592,247.294 235.338 C 247.132 235.084,247.000 235.922,247.000 237.200 M245.786 241.300 L 245.152 242.600 245.967 241.600 C 246.752 240.637,247.008 240.000,246.610 240.000 C 246.506 240.000,246.135 240.585,245.786 241.300 M242.244 246.851 C 240.790 249.080,239.602 251.105,239.605 251.351 C 239.607 251.598,240.028 251.069,240.539 250.175 C 241.051 249.281,242.187 247.481,243.065 246.175 C 245.022 243.262,245.296 242.800,245.068 242.800 C 244.969 242.800,243.699 244.623,242.244 246.851 M155.872 248.575 C 155.287 250.316,154.892 251.825,154.994 251.928 C 155.097 252.030,155.292 251.774,155.428 251.357 C 156.171 249.077,156.521 248.115,156.887 247.339 C 157.110 246.866,157.213 246.238,157.115 245.944 C 157.017 245.650,156.457 246.834,155.872 248.575 M238.164 253.329 C 237.709 254.028,237.015 255.095,236.622 255.700 C 236.229 256.305,235.993 256.800,236.097 256.800 C 236.366 256.800,239.286 252.353,239.124 252.191 C 239.051 252.117,238.618 252.629,238.164 253.329 M153.453 255.537 C 151.827 260.642,153.807 264.889,157.754 264.759 L 159.000 264.718 157.792 264.428 C 156.067 264.015,154.452 262.860,153.780 261.560 C 152.792 259.651,153.014 257.356,154.496 254.139 C 154.714 253.666,154.808 253.036,154.704 252.739 C 154.600 252.443,154.037 253.702,153.453 255.537 M232.716 261.688 C 231.851 263.022,231.148 264.400,231.333 264.400 C 231.625 264.400,233.664 261.130,233.484 260.951 C 233.387 260.854,233.042 261.186,232.716 261.688 M189.300 265.232 C 190.210 265.762,190.184 266.940,189.200 269.800 C 188.296 272.428,188.277 272.523,188.721 272.249 C 188.897 272.140,189.293 271.128,189.600 270.000 C 189.907 268.872,190.303 267.860,190.479 267.751 C 191.468 267.140,190.461 264.788,189.220 264.812 C 188.710 264.822,188.724 264.896,189.300 265.232 M227.857 269.394 C 227.055 270.600,226.400 271.722,226.400 271.887 C 226.400 272.164,227.244 270.992,228.982 268.300 C 229.372 267.695,229.607 267.200,229.503 267.200 C 229.398 267.200,228.658 268.187,227.857 269.394 M187.056 275.752 C 186.000 278.726,185.726 279.929,186.362 278.800 C 186.963 277.734,188.479 273.146,188.292 272.959 C 188.193 272.860,187.636 274.116,187.056 275.752 M223.925 275.700 C 221.395 279.528,221.106 280.000,221.297 280.000 C 221.464 280.000,222.559 278.423,224.977 274.700 C 225.370 274.095,225.607 273.600,225.503 273.600 C 225.398 273.600,224.689 274.545,223.925 275.700 M185.600 279.672 C 185.600 279.785,185.046 281.390,184.369 283.238 C 183.691 285.087,182.805 287.590,182.400 288.800 C 181.995 290.010,181.097 292.530,180.406 294.400 C 179.715 296.270,178.692 299.150,178.132 300.800 C 177.573 302.450,176.867 304.281,176.563 304.869 C 175.803 306.342,174.706 309.639,174.909 309.842 C 175.001 309.934,175.363 309.152,175.714 308.104 C 176.239 306.535,177.822 302.529,179.626 298.200 C 179.810 297.760,180.229 296.590,180.558 295.600 C 180.887 294.610,181.893 291.730,182.794 289.200 C 183.695 286.670,184.801 283.552,185.253 282.270 C 185.704 280.989,185.967 279.834,185.837 279.703 C 185.707 279.573,185.600 279.559,185.600 279.672 M218.792 283.700 C 218.054 284.855,217.193 286.205,216.879 286.700 C 216.565 287.195,216.393 287.600,216.497 287.600 C 216.705 287.600,219.184 283.938,219.949 282.500 C 220.809 280.884,220.165 281.553,218.792 283.700 M213.453 291.991 C 212.453 293.502,212.015 294.596,212.736 293.780 C 213.292 293.152,214.879 290.400,214.686 290.400 C 214.587 290.400,214.032 291.116,213.453 291.991 M211.273 295.400 C 211.022 295.950,210.883 296.400,210.963 296.400 C 211.043 296.400,211.403 295.950,211.763 295.400 C 212.124 294.850,212.263 294.400,212.073 294.400 C 211.884 294.400,211.523 294.850,211.273 295.400 M209.125 298.900 C 206.595 302.728,206.306 303.200,206.497 303.200 C 206.664 303.200,207.759 301.623,210.177 297.900 C 210.570 297.295,210.807 296.800,210.703 296.800 C 210.598 296.800,209.889 297.745,209.125 298.900 M204.790 305.680 C 204.073 306.846,203.221 308.205,202.897 308.700 C 202.573 309.195,202.392 309.600,202.495 309.600 C 202.813 309.600,206.468 303.935,206.275 303.742 C 206.175 303.642,205.507 304.514,204.790 305.680 M174.150 311.100 C 174.026 311.485,173.779 312.250,173.600 312.800 C 173.421 313.350,173.170 314.124,173.042 314.521 C 172.914 314.917,172.966 315.145,173.157 315.027 C 173.348 314.909,173.599 314.404,173.714 313.906 C 173.829 313.408,174.108 312.415,174.334 311.700 C 174.559 310.985,174.661 310.400,174.560 310.400 C 174.458 310.400,174.274 310.715,174.150 311.100 M199.028 314.638 C 198.210 315.868,197.624 316.958,197.725 317.059 C 197.826 317.160,198.323 316.558,198.830 315.721 C 199.337 314.884,200.008 313.795,200.322 313.300 C 201.540 311.377,200.432 312.523,199.028 314.638 M172.283 316.284 C 172.163 316.678,171.873 317.618,171.639 318.373 C 171.405 319.128,171.354 319.578,171.525 319.373 C 171.987 318.819,172.903 315.969,172.688 315.754 C 172.585 315.652,172.403 315.890,172.283 316.284 M194.260 322.196 C 193.017 324.064,191.999 325.729,191.998 325.896 C 191.997 326.063,191.271 327.190,190.383 328.400 C 189.014 330.268,188.971 330.378,190.101 329.130 C 190.833 328.322,191.691 327.152,192.006 326.530 C 192.322 325.909,193.408 324.140,194.419 322.600 C 196.662 319.186,196.892 318.800,196.684 318.800 C 196.594 318.800,195.503 320.328,194.260 322.196 M169.044 325.767 C 168.911 326.299,168.951 327.139,169.134 327.633 C 169.392 328.330,169.467 328.113,169.467 326.666 C 169.467 324.552,169.390 324.389,169.044 325.767 M172.315 330.872 C 172.692 331.021,176.150 331.144,180.000 331.144 C 183.850 331.144,187.308 331.021,187.685 330.872 C 188.062 330.722,184.604 330.600,180.000 330.600 C 175.396 330.600,171.938 330.722,172.315 330.872 " stroke="none" fill="#e7c382" fill-rule="evenodd"></path><path id="path5" d="M299.800 30.800 L 291.000 31.024 299.900 31.112 C 305.625 31.169,308.800 31.057,308.800 30.800 C 308.800 30.580,308.755 30.440,308.700 30.488 C 308.645 30.537,304.640 30.677,299.800 30.800 M162.336 108.138 C 156.183 110.872,157.907 119.600,164.600 119.600 C 168.359 119.600,170.400 117.520,170.400 113.689 C 170.400 109.346,166.170 106.434,162.336 108.138 M185.483 108.436 C 179.869 111.399,181.864 119.597,188.200 119.597 C 194.523 119.597,196.509 111.807,191.008 108.584 C 188.994 107.403,187.515 107.364,185.483 108.436 M209.600 108.106 C 203.520 110.856,205.194 119.597,211.800 119.597 C 218.190 119.597,220.136 111.327,214.432 108.416 C 212.667 107.516,211.124 107.417,209.600 108.106 M233.200 108.106 C 228.679 110.151,228.196 116.826,232.412 119.006 C 237.395 121.583,243.392 116.299,240.952 111.480 C 239.285 108.189,236.091 106.799,233.200 108.106 M168.141 109.571 C 170.936 111.937,170.435 116.927,167.238 118.581 C 163.169 120.685,158.728 117.452,159.359 112.845 C 159.915 108.792,164.987 106.901,168.141 109.571 M189.937 108.658 C 194.318 109.707,194.897 116.481,190.788 118.606 C 186.140 121.010,180.947 115.882,183.368 111.280 C 184.306 109.498,187.002 107.852,188.337 108.245 C 188.633 108.332,189.353 108.518,189.937 108.658 M213.171 108.500 C 219.234 110.623,218.135 119.200,211.800 119.200 C 204.734 119.200,204.542 109.786,211.572 108.043 C 211.666 108.019,212.386 108.225,213.171 108.500 M238.955 109.572 C 242.644 112.640,240.279 119.194,235.480 119.199 C 229.113 119.205,227.845 110.365,233.956 108.578 C 235.572 108.105,237.701 108.529,238.955 109.572 M25.062 142.300 C 24.960 142.465,96.533 142.555,184.114 142.499 C 311.325 142.418,343.416 142.499,343.670 142.899 C 343.845 143.175,343.991 148.766,343.994 155.325 L 344.000 167.251 348.700 167.152 C 353.801 167.045,355.309 167.458,356.466 169.280 C 360.156 175.090,356.906 179.200,348.620 179.200 L 344.000 179.200 344.000 225.784 C 344.000 277.184,344.018 276.725,341.604 288.000 C 341.301 289.415,339.455 295.126,338.824 296.600 C 338.636 297.040,338.177 298.120,337.805 299.000 C 330.306 316.724,314.751 331.955,297.200 338.758 C 295.330 339.483,293.440 340.219,293.000 340.393 C 292.560 340.566,291.390 340.930,290.400 341.201 C 289.410 341.471,288.150 341.835,287.600 342.010 C 287.050 342.184,285.520 342.522,284.200 342.762 C 282.880 343.001,280.810 343.411,279.600 343.673 C 277.933 344.033,246.800 344.181,151.087 344.283 L 24.775 344.418 24.887 349.109 L 25.000 353.800 200.000 353.800 L 375.000 353.800 375.101 248.166 L 375.201 142.531 351.501 142.266 C 318.729 141.899,25.291 141.930,25.062 142.300 " stroke="none" fill="#aab6c8" fill-rule="evenodd"></path><path id="path6" d="M343.095 57.220 L 341.989 58.425 342.095 71.713 L 342.200 85.000 358.700 85.104 L 375.200 85.209 375.200 71.474 L 375.200 57.739 374.274 56.870 C 373.358 56.009,373.192 56.000,358.774 56.008 L 344.200 56.015 343.095 57.220 M322.980 167.763 C 318.596 169.672,318.272 175.894,322.445 178.023 C 323.873 178.751,324.905 178.800,338.893 178.800 L 353.818 178.800 355.299 177.579 C 358.519 174.925,358.031 169.677,354.388 167.794 C 352.789 166.967,324.871 166.939,322.980 167.763 " stroke="none" fill="#d85470" fill-rule="evenodd"></path><path id="path7" d="M188.120 165.242 C 187.416 165.446,186.719 165.808,186.571 166.046 C 186.424 166.285,186.730 166.237,187.252 165.940 C 188.013 165.506,192.160 165.400,208.285 165.400 C 219.332 165.400,228.062 165.278,227.685 165.128 C 226.639 164.713,189.580 164.820,188.120 165.242 M229.948 166.671 C 232.644 168.795,232.937 170.975,231.199 175.979 C 230.554 177.838,230.106 179.439,230.203 179.537 C 230.301 179.634,230.466 179.464,230.571 179.157 C 232.997 172.024,233.139 171.176,232.256 169.087 C 231.657 167.670,229.746 165.597,229.045 165.604 C 228.800 165.607,229.207 166.087,229.948 166.671 M184.894 167.500 C 184.037 168.738,182.682 172.015,182.926 172.259 C 183.013 172.346,183.407 171.559,183.802 170.509 C 184.196 169.459,184.864 168.105,185.287 167.500 C 185.709 166.895,185.964 166.400,185.854 166.400 C 185.744 166.400,185.312 166.895,184.894 167.500 M179.800 180.400 C 179.650 180.873,179.617 181.350,179.727 181.460 C 179.837 181.570,180.050 181.273,180.200 180.800 C 180.350 180.327,180.383 179.850,180.273 179.740 C 180.163 179.630,179.950 179.927,179.800 180.400 M229.077 181.877 C 228.700 182.893,228.479 183.813,228.587 183.920 C 228.694 184.027,228.892 183.774,229.028 183.357 C 229.164 182.941,229.462 182.099,229.691 181.487 C 229.920 180.875,230.030 180.297,229.935 180.201 C 229.840 180.106,229.454 180.860,229.077 181.877 M226.446 189.067 C 226.421 189.324,226.284 189.864,226.141 190.267 C 225.940 190.836,225.994 190.897,226.379 190.542 C 226.652 190.291,226.789 189.751,226.684 189.342 C 226.579 188.934,226.472 188.810,226.446 189.067 M172.667 200.267 C 172.520 200.413,172.411 200.908,172.425 201.367 C 172.449 202.133,172.482 202.123,172.834 201.242 C 173.226 200.263,173.144 199.789,172.667 200.267 M171.067 204.667 C 170.920 204.813,170.811 205.308,170.825 205.767 C 170.849 206.533,170.882 206.523,171.234 205.642 C 171.626 204.663,171.544 204.189,171.067 204.667 M170.148 207.500 C 170.024 207.885,169.654 208.917,169.326 209.794 C 168.999 210.671,168.301 212.671,167.774 214.239 C 167.248 215.807,166.695 217.429,166.545 217.845 C 166.395 218.260,166.397 218.489,166.549 218.354 C 167.038 217.919,170.897 206.800,170.560 206.800 C 170.458 206.800,170.273 207.115,170.148 207.500 M219.800 207.600 C 219.650 208.073,219.617 208.550,219.727 208.660 C 219.837 208.770,220.050 208.473,220.200 208.000 C 220.350 207.527,220.383 207.050,220.273 206.940 C 220.163 206.830,219.950 207.127,219.800 207.600 M217.815 213.415 C 217.430 214.424,217.204 215.337,217.313 215.446 C 217.421 215.555,217.800 214.793,218.154 213.754 C 218.990 211.299,218.725 211.034,217.815 213.415 M216.291 217.691 C 214.480 222.650,213.963 224.505,214.114 225.501 L 214.280 226.600 214.344 225.400 C 214.379 224.740,215.033 222.412,215.796 220.226 C 216.560 218.040,217.124 216.191,217.050 216.117 C 216.976 216.043,216.635 216.751,216.291 217.691 M165.446 220.646 C 164.610 223.101,164.875 223.366,165.785 220.985 C 166.170 219.976,166.396 219.063,166.287 218.954 C 166.179 218.845,165.800 219.607,165.446 220.646 M214.400 227.162 C 214.400 227.760,216.803 230.401,217.341 230.396 C 217.594 230.393,217.215 229.930,216.500 229.367 C 215.785 228.803,215.200 228.096,215.200 227.795 C 215.200 227.494,215.020 227.136,214.800 227.000 C 214.580 226.864,214.400 226.937,214.400 227.162 M218.256 230.790 C 218.361 230.894,224.110 230.984,231.033 230.990 C 237.955 230.995,243.030 230.864,242.310 230.698 C 240.923 230.378,217.933 230.466,218.256 230.790 M244.000 231.311 C 244.000 231.387,244.585 231.878,245.300 232.401 C 246.104 232.990,246.384 233.087,246.033 232.655 C 245.500 231.999,244.000 231.007,244.000 231.311 M247.400 237.200 C 247.400 238.258,247.535 239.040,247.700 238.938 C 247.865 238.836,248.000 238.054,248.000 237.200 C 248.000 236.346,247.865 235.564,247.700 235.462 C 247.535 235.360,247.400 236.142,247.400 237.200 M245.453 242.500 L 244.733 243.800 245.558 242.800 C 246.289 241.913,246.614 241.200,246.286 241.200 C 246.224 241.200,245.849 241.785,245.453 242.500 M157.067 243.867 C 156.920 244.013,156.811 244.508,156.825 244.967 C 156.849 245.733,156.882 245.723,157.234 244.842 C 157.626 243.863,157.544 243.389,157.067 243.867 M154.577 251.043 C 154.444 251.459,154.170 252.213,153.967 252.719 C 153.765 253.224,153.610 253.854,153.622 254.119 C 153.634 254.383,154.000 253.721,154.436 252.647 C 154.872 251.573,155.136 250.603,155.023 250.490 C 154.911 250.378,154.710 250.626,154.577 251.043 M153.067 255.067 C 152.920 255.213,152.811 255.708,152.825 256.167 C 152.849 256.933,152.882 256.923,153.234 256.042 C 153.626 255.063,153.544 254.589,153.067 255.067 M235.135 258.500 C 233.549 260.996,233.191 261.785,234.272 260.400 C 235.327 259.048,236.913 256.400,236.667 256.400 C 236.558 256.400,235.868 257.345,235.135 258.500 M152.198 258.006 C 151.889 258.978,152.622 261.388,153.687 262.906 C 155.292 265.194,155.340 265.199,172.680 265.206 C 189.687 265.213,189.437 265.186,189.704 267.001 L 189.880 268.200 189.940 266.914 C 190.037 264.824,189.836 264.800,172.551 264.800 C 156.719 264.800,156.644 264.796,155.327 263.900 C 153.704 262.796,152.631 260.697,152.669 258.700 C 152.701 257.013,152.573 256.825,152.198 258.006 M231.925 263.700 C 229.395 267.528,229.106 268.000,229.297 268.000 C 229.464 268.000,230.559 266.423,232.977 262.700 C 233.370 262.095,233.607 261.600,233.503 261.600 C 233.398 261.600,232.689 262.545,231.925 263.700 M188.177 271.443 C 188.044 271.859,187.770 272.613,187.567 273.119 C 187.365 273.624,187.210 274.254,187.222 274.519 C 187.234 274.783,187.600 274.121,188.036 273.047 C 188.472 271.973,188.736 271.003,188.623 270.890 C 188.511 270.778,188.310 271.026,188.177 271.443 M226.832 271.539 C 226.179 272.760,226.314 273.100,227.041 272.063 C 227.393 271.560,227.588 271.054,227.473 270.940 C 227.359 270.825,227.070 271.095,226.832 271.539 M186.632 275.643 C 186.530 275.949,186.178 277.010,185.849 278.000 C 185.521 278.990,184.700 281.314,184.025 283.165 C 183.350 285.016,182.888 286.621,182.999 286.732 C 183.109 286.843,183.200 286.852,183.200 286.753 C 183.200 286.558,184.042 284.157,185.979 278.835 C 186.652 276.984,187.116 275.383,187.011 275.277 C 186.905 275.172,186.735 275.336,186.632 275.643 M221.108 280.500 C 220.787 280.995,220.307 281.850,220.040 282.400 C 219.360 283.803,220.594 282.306,221.441 280.700 C 222.139 279.374,221.923 279.244,221.108 280.500 M217.104 286.900 C 214.571 290.774,213.620 292.399,213.888 292.394 C 214.059 292.391,214.686 291.536,215.279 290.494 C 215.872 289.452,216.745 288.015,217.218 287.300 C 217.691 286.585,217.992 286.000,217.885 286.000 C 217.779 286.000,217.427 286.405,217.104 286.900 M181.400 290.400 C 181.250 290.873,181.217 291.350,181.327 291.460 C 181.437 291.570,181.650 291.273,181.800 290.800 C 181.950 290.327,181.983 289.850,181.873 289.740 C 181.763 289.630,181.550 289.927,181.400 290.400 M211.053 296.500 L 210.333 297.800 211.158 296.800 C 211.889 295.913,212.214 295.200,211.886 295.200 C 211.824 295.200,211.449 295.785,211.053 296.500 M200.306 313.300 C 198.903 315.555,197.417 317.940,197.004 318.600 C 196.591 319.260,196.453 319.620,196.696 319.400 C 196.940 319.180,198.378 317.020,199.892 314.600 C 203.424 308.954,203.280 309.200,203.053 309.200 C 202.946 309.200,201.710 311.045,200.306 313.300 M168.603 325.992 C 168.464 326.427,168.506 327.061,168.696 327.399 C 168.939 327.835,169.040 327.604,169.040 326.607 C 169.040 324.996,168.956 324.878,168.603 325.992 M169.200 328.756 C 169.200 329.135,171.155 330.999,171.311 330.768 C 171.374 330.676,170.924 330.116,170.312 329.526 C 169.701 328.935,169.200 328.588,169.200 328.756 M172.538 331.294 C 172.792 331.456,176.150 331.588,180.000 331.588 C 183.850 331.588,187.208 331.456,187.462 331.294 C 187.716 331.132,184.358 331.000,180.000 331.000 C 175.642 331.000,172.284 331.132,172.538 331.294 " stroke="none" fill="#e4d4af" fill-rule="evenodd"></path><path id="path8" d="M329.323 167.099 C 332.141 167.168,336.641 167.168,339.323 167.099 C 342.005 167.030,339.700 166.973,334.200 166.973 C 328.700 166.974,326.505 167.030,329.323 167.099 M321.783 167.945 C 318.830 169.746,318.050 173.817,320.135 176.550 C 322.196 179.253,321.885 179.210,338.680 179.109 L 353.800 179.019 338.600 178.809 C 325.309 178.626,323.244 178.515,322.159 177.920 C 318.265 175.787,318.765 169.599,322.980 167.763 C 323.651 167.470,323.930 167.225,323.600 167.217 C 323.270 167.209,322.452 167.537,321.783 167.945 M357.400 173.000 C 357.400 173.948,357.532 174.516,357.694 174.262 C 357.856 174.008,357.988 173.440,357.988 173.000 C 357.988 172.560,357.856 171.992,357.694 171.738 C 357.532 171.484,357.400 172.052,357.400 173.000 M355.405 177.365 C 354.528 178.225,354.168 178.737,354.605 178.501 C 355.494 178.023,357.430 176.059,357.168 175.902 C 357.076 175.846,356.282 176.504,355.405 177.365 " stroke="none" fill="#e49cac" fill-rule="evenodd"></path></g></svg>