<?xml version="1.0" encoding="utf-8"?>
<svg version="1.1" xmlns="http://www.w3.org/2000/svg" xmlns:xlink="http://www.w3.org/1999/xlink" width="200px"
     height="200px" viewBox="0, 0, 400,400">
    <g style="transform-origin:50% 50%;transform:rotate(0deg) scale(1, 1);">
        <path id="path0"
              d="M80.497 108.700 C 80.591 143.836,80.598 144.116,80.700 117.422 C 80.777 97.187,80.928 89.768,81.265 89.560 C 81.518 89.404,126.461 89.377,181.139 89.500 L 280.553 89.725 279.622 88.162 C 278.733 86.670,278.194 85.740,276.400 82.600 C 275.960 81.830,275.240 80.570,274.800 79.800 C 274.360 79.030,273.611 77.725,273.135 76.900 C 272.659 76.075,272.015 74.904,271.704 74.298 C 271.393 73.692,270.805 73.017,270.396 72.798 C 269.909 72.537,236.998 72.400,175.026 72.400 L 80.400 72.400 80.497 108.700 M284.600 140.806 C 281.960 140.979,278.945 141.251,277.900 141.412 L 276.000 141.704 276.000 147.628 C 276.000 151.147,275.838 153.653,275.600 153.800 C 274.340 154.579,276.685 154.708,291.100 154.657 C 299.845 154.626,307.495 154.738,308.100 154.908 C 312.689 156.191,305.253 145.054,299.786 142.456 C 298.694 141.937,297.500 141.360,297.132 141.173 C 296.090 140.643,289.880 140.461,284.600 140.806 M263.600 142.432 C 261.070 142.593,256.480 142.930,253.400 143.181 C 250.320 143.433,245.460 143.807,242.600 144.013 C 239.740 144.218,235.060 144.563,232.200 144.778 C 229.340 144.993,224.390 145.362,221.200 145.598 C 218.010 145.834,213.240 146.190,210.600 146.389 C 207.960 146.587,203.047 146.935,199.683 147.162 C 192.303 147.659,192.730 147.431,193.011 150.729 C 193.227 153.258,193.376 154.022,194.446 158.100 C 195.898 163.629,200.670 173.640,202.788 175.600 C 202.907 175.710,203.541 176.520,204.197 177.400 C 205.858 179.628,210.115 183.722,212.988 185.854 C 214.314 186.839,215.682 187.860,216.027 188.122 C 217.122 188.957,218.976 190.042,219.700 190.271 C 220.085 190.393,220.400 190.652,220.400 190.847 C 220.400 191.041,220.760 191.200,221.200 191.200 C 221.640 191.200,222.000 191.380,222.000 191.600 C 222.000 191.820,222.272 192.000,222.605 192.000 C 222.938 192.000,223.523 192.159,223.905 192.353 C 224.563 192.688,225.672 193.156,227.700 193.954 C 228.195 194.149,229.410 194.534,230.400 194.808 C 231.390 195.083,232.780 195.498,233.490 195.731 C 234.698 196.126,236.024 195.713,234.867 195.301 C 225.637 192.018,211.351 173.396,209.860 162.701 C 209.614 160.942,209.241 161.081,216.000 160.409 C 222.324 159.780,222.400 159.759,222.400 158.623 C 222.400 157.388,224.573 155.200,225.800 155.200 C 226.999 155.200,229.200 157.036,229.200 158.036 C 229.200 158.937,229.689 158.966,235.151 158.391 C 239.573 157.925,255.302 156.502,259.600 156.178 C 264.280 155.826,264.811 155.635,267.075 153.494 L 269.200 151.484 269.200 146.742 C 269.200 143.178,269.076 142.017,268.700 142.070 C 268.425 142.109,266.130 142.272,263.600 142.432 M80.900 151.865 C 80.032 152.215,80.183 225.942,81.053 226.276 C 81.412 226.413,82.040 226.318,82.448 226.063 C 82.855 225.808,84.081 225.600,85.171 225.600 C 86.261 225.600,87.264 225.420,87.400 225.200 C 87.536 224.980,88.436 224.800,89.400 224.800 C 90.364 224.800,91.264 224.620,91.400 224.400 C 91.536 224.180,92.346 224.000,93.200 224.000 C 94.054 224.000,94.864 223.820,95.000 223.600 C 95.136 223.380,95.946 223.200,96.800 223.200 C 97.654 223.200,98.464 223.020,98.600 222.800 C 98.736 222.580,99.636 222.400,100.600 222.400 C 101.564 222.400,102.464 222.220,102.600 222.000 C 102.736 221.780,103.546 221.600,104.400 221.600 C 105.254 221.600,106.064 221.420,106.200 221.200 C 106.336 220.980,107.236 220.800,108.200 220.800 C 109.164 220.800,110.064 220.620,110.200 220.400 C 110.336 220.180,111.121 220.000,111.944 220.000 C 112.767 220.000,113.611 219.838,113.820 219.641 C 114.029 219.444,114.920 219.185,115.800 219.067 C 116.680 218.949,118.300 218.652,119.400 218.408 C 120.500 218.164,121.897 217.861,122.505 217.736 C 123.113 217.610,123.708 217.349,123.829 217.154 C 123.949 216.959,124.397 216.800,124.824 216.800 C 125.251 216.800,125.600 216.620,125.600 216.400 C 125.600 216.180,125.808 216.000,126.063 216.000 C 128.138 216.000,134.800 208.122,134.800 205.668 C 134.800 205.279,135.025 204.735,135.300 204.460 C 135.687 204.073,135.830 198.089,135.931 177.980 L 136.061 152.000 109.263 152.000 C 94.524 152.000,82.226 151.924,81.933 151.832 C 81.640 151.739,81.175 151.754,80.900 151.865 M80.593 279.000 C 80.593 304.300,80.641 314.591,80.700 301.869 C 80.759 289.147,80.759 268.447,80.700 255.869 C 80.641 243.291,80.593 253.700,80.593 279.000 M309.300 310.230 C 309.025 310.525,308.800 310.862,308.800 310.979 C 308.800 311.939,301.717 319.585,298.584 322.006 C 292.498 326.708,286.148 329.444,277.280 331.184 C 275.908 331.453,262.332 331.600,238.768 331.600 C 210.012 331.600,202.339 331.705,202.202 332.100 C 202.107 332.375,201.978 336.245,201.915 340.700 L 201.800 348.801 256.000 348.801 L 310.200 348.800 310.098 334.500 C 309.933 311.396,309.874 309.614,309.300 310.230 "
              stroke="none" fill="#e5edfa" fill-rule="evenodd"></path>
        <path id="path1"
              d="M261.165 50.113 C 259.168 51.646,259.532 56.970,261.700 57.933 C 261.865 58.007,262.000 58.329,262.000 58.650 C 262.000 58.971,262.360 59.620,262.800 60.092 C 263.240 60.564,263.600 61.187,263.600 61.475 C 263.600 61.764,263.780 62.000,264.000 62.000 C 264.220 62.000,264.400 62.360,264.400 62.800 C 264.400 63.240,264.580 63.600,264.800 63.600 C 265.020 63.600,265.200 63.960,265.200 64.400 C 265.200 65.198,264.929 65.200,172.900 65.213 C 100.975 65.223,80.460 65.333,79.965 65.713 C 78.641 66.729,77.672 70.800,78.753 70.800 C 78.948 70.800,79.201 71.160,79.316 71.600 C 79.535 72.438,80.576 72.686,81.000 72.000 C 81.549 71.112,270.265 71.487,271.084 72.378 C 271.478 72.806,272.246 74.021,272.790 75.078 C 273.335 76.135,273.875 77.090,273.990 77.200 C 274.106 77.310,274.442 77.830,274.738 78.355 C 275.565 79.825,276.718 81.856,277.600 83.400 C 279.598 86.896,280.172 87.904,281.018 89.400 C 281.516 90.280,283.560 93.853,285.561 97.340 C 287.563 100.827,289.200 103.769,289.200 103.878 C 289.200 103.987,289.533 104.554,289.939 105.138 C 290.345 105.722,291.222 107.190,291.886 108.400 C 294.590 113.323,299.413 121.537,300.828 123.631 C 302.229 125.704,302.819 126.684,304.725 130.100 C 305.850 132.116,307.934 137.623,308.245 139.400 C 308.551 141.145,308.478 141.133,306.205 139.069 C 304.959 137.937,299.256 135.365,296.735 134.798 C 293.995 134.182,282.507 134.627,266.800 135.957 C 260.746 136.470,252.333 137.126,245.400 137.625 C 236.192 138.287,229.690 138.775,224.400 139.200 C 221.650 139.421,216.790 139.788,213.600 140.014 C 210.410 140.241,205.460 140.600,202.600 140.812 C 199.740 141.023,194.970 141.373,192.000 141.589 C 185.319 142.076,177.816 142.648,171.000 143.190 C 168.140 143.418,163.190 143.790,160.000 144.018 C 156.810 144.245,152.040 144.625,149.400 144.861 C 142.084 145.514,81.685 145.769,80.938 145.149 C 80.003 144.373,78.400 146.353,78.400 148.283 C 78.401 150.254,80.012 152.350,80.798 151.403 C 81.312 150.783,134.588 150.437,136.167 151.043 C 137.067 151.388,137.132 200.712,136.237 204.080 C 134.136 211.996,128.242 217.543,120.200 219.173 C 118.880 219.441,117.170 219.818,116.400 220.011 C 115.630 220.204,114.460 220.472,113.800 220.606 C 111.385 221.096,108.953 221.584,107.000 221.969 C 105.900 222.186,104.100 222.560,103.000 222.800 C 101.900 223.040,100.190 223.400,99.200 223.600 C 98.210 223.800,96.500 224.160,95.400 224.400 C 93.352 224.847,91.204 225.285,87.500 226.012 C 83.703 226.756,80.923 226.923,80.615 226.424 C 80.076 225.552,78.401 228.047,78.400 229.724 C 78.400 230.638,78.560 231.148,78.800 231.000 C 79.020 230.864,79.200 231.080,79.200 231.480 C 79.200 232.436,80.640 233.395,80.932 232.634 C 81.061 232.297,81.904 232.090,83.267 232.061 C 84.440 232.036,86.255 231.832,87.300 231.608 C 88.345 231.384,90.145 231.011,91.300 230.780 C 92.455 230.550,94.120 230.204,95.000 230.013 C 95.880 229.822,97.680 229.457,99.000 229.203 C 100.320 228.948,102.030 228.587,102.800 228.400 C 103.570 228.213,105.280 227.853,106.600 227.600 C 107.920 227.347,109.630 226.987,110.400 226.800 C 111.170 226.613,112.880 226.255,114.200 226.006 C 115.520 225.756,117.153 225.383,117.828 225.176 C 118.504 224.969,119.531 224.800,120.110 224.800 C 120.689 224.800,121.576 224.643,122.081 224.451 C 122.587 224.259,123.720 223.887,124.600 223.624 C 131.777 221.481,141.200 211.824,141.200 206.613 C 141.200 206.247,141.424 205.554,141.699 205.074 C 142.078 204.410,142.246 197.804,142.399 177.605 L 142.600 151.009 144.600 150.723 C 145.700 150.565,149.570 150.233,153.200 149.985 C 156.830 149.737,161.960 149.375,164.600 149.181 C 167.240 148.986,171.920 148.645,175.000 148.422 C 178.080 148.199,181.833 147.897,183.341 147.750 C 186.575 147.436,186.785 147.615,186.794 150.694 C 186.801 153.145,187.625 157.075,189.248 162.400 C 190.181 165.460,190.294 165.744,192.036 169.400 C 196.602 178.988,203.514 187.023,212.402 193.076 C 214.071 194.213,215.032 194.788,218.500 196.727 C 222.521 198.974,229.459 201.214,235.536 202.228 C 241.588 203.237,289.308 203.044,293.466 201.993 C 299.041 200.584,305.780 196.505,308.425 192.937 C 310.340 190.354,310.400 190.670,310.400 203.381 C 310.400 211.285,310.549 215.489,310.852 216.154 C 311.556 217.699,315.210 218.847,316.217 217.840 C 316.934 217.123,317.114 145.441,316.400 145.000 C 316.180 144.864,316.000 143.953,316.000 142.976 C 316.000 141.999,315.820 141.200,315.600 141.200 C 315.380 141.200,315.200 140.480,315.200 139.600 C 315.200 138.720,315.020 138.000,314.800 138.000 C 314.580 138.000,314.400 137.381,314.400 136.624 C 314.400 135.867,314.220 135.136,314.000 135.000 C 313.780 134.864,313.600 134.403,313.600 133.976 C 313.600 133.549,313.420 133.200,313.200 133.200 C 312.980 133.200,312.800 132.660,312.800 132.000 C 312.800 131.340,312.620 130.800,312.400 130.800 C 312.180 130.800,312.000 130.440,312.000 130.000 C 312.000 129.560,311.820 129.200,311.600 129.200 C 311.380 129.200,311.200 128.840,311.200 128.400 C 311.200 127.960,311.020 127.600,310.800 127.600 C 310.580 127.600,310.400 127.240,310.400 126.800 C 310.400 126.360,310.220 126.000,310.000 126.000 C 309.780 126.000,309.600 125.730,309.600 125.400 C 309.600 125.070,309.420 124.800,309.200 124.800 C 308.980 124.800,308.800 124.440,308.800 124.000 C 308.800 123.560,308.638 123.200,308.439 123.200 C 308.241 123.200,307.902 122.694,307.686 122.076 C 307.471 121.457,307.048 120.687,306.747 120.364 C 306.023 119.586,304.807 117.577,304.529 116.700 C 304.407 116.315,304.148 116.000,303.953 116.000 C 303.759 116.000,303.600 115.640,303.600 115.200 C 303.600 114.760,303.441 114.400,303.247 114.400 C 303.052 114.400,302.793 114.085,302.671 113.700 C 302.375 112.764,301.076 110.634,300.700 110.467 C 300.535 110.393,300.400 110.093,300.400 109.800 C 300.400 109.507,300.265 109.207,300.100 109.133 C 299.935 109.060,299.367 108.145,298.837 107.100 C 298.308 106.055,297.723 105.200,297.537 105.200 C 297.352 105.200,297.200 104.840,297.200 104.400 C 297.200 103.960,297.020 103.600,296.800 103.600 C 296.580 103.600,296.400 103.322,296.400 102.983 C 296.400 102.644,296.040 101.980,295.600 101.508 C 295.160 101.036,294.800 100.413,294.800 100.125 C 294.800 99.836,294.620 99.600,294.400 99.600 C 294.180 99.600,294.000 99.240,294.000 98.800 C 294.000 98.360,293.820 98.000,293.600 98.000 C 293.380 98.000,293.200 97.655,293.200 97.233 C 293.200 96.812,293.039 96.407,292.843 96.333 C 292.528 96.215,290.188 92.152,289.026 89.703 C 288.792 89.210,288.465 88.805,288.300 88.803 C 288.135 88.801,288.000 88.440,288.000 88.000 C 288.000 87.560,287.820 87.200,287.600 87.200 C 287.380 87.200,287.200 86.922,287.200 86.583 C 287.200 86.244,286.840 85.580,286.400 85.108 C 285.960 84.636,285.600 84.013,285.600 83.725 C 285.600 83.436,285.420 83.200,285.200 83.200 C 284.980 83.200,284.800 82.840,284.800 82.400 C 284.800 81.960,284.620 81.600,284.400 81.600 C 284.180 81.600,284.000 81.364,284.000 81.075 C 284.000 80.787,283.640 80.164,283.200 79.692 C 282.760 79.220,282.400 78.556,282.400 78.217 C 282.400 77.878,282.264 77.600,282.098 77.600 C 281.931 77.600,281.536 77.015,281.220 76.300 C 280.903 75.585,280.320 74.651,279.922 74.225 C 279.525 73.798,279.200 73.213,279.200 72.925 C 279.200 72.636,279.020 72.400,278.800 72.400 C 278.580 72.400,278.400 72.055,278.400 71.633 C 278.400 71.212,278.265 70.807,278.100 70.733 C 277.724 70.566,276.425 68.436,276.129 67.500 C 276.007 67.115,275.748 66.800,275.553 66.800 C 275.359 66.800,275.187 66.485,275.171 66.100 C 275.155 65.715,274.805 64.860,274.394 64.200 C 273.982 63.540,273.146 62.010,272.534 60.800 C 271.923 59.590,271.103 58.251,270.711 57.825 C 270.320 57.398,270.000 56.813,270.000 56.525 C 270.000 56.236,269.820 56.000,269.600 56.000 C 269.380 56.000,269.200 55.655,269.200 55.233 C 269.200 54.812,269.034 54.407,268.830 54.333 C 268.627 54.260,268.401 53.930,268.330 53.600 C 268.259 53.270,267.885 52.709,267.500 52.353 C 267.115 51.997,266.799 51.457,266.797 51.153 C 266.790 49.861,262.521 49.072,261.165 50.113 M295.094 140.053 C 300.524 141.345,306.073 145.206,307.663 148.797 C 307.956 149.459,308.331 150.000,308.498 150.000 C 308.664 150.000,308.800 150.272,308.800 150.605 C 308.800 150.938,308.962 151.523,309.161 151.905 C 310.279 154.057,310.438 156.160,310.301 167.000 C 310.149 179.061,310.076 179.567,307.831 184.110 C 305.001 189.838,299.757 194.308,293.337 196.465 C 290.638 197.371,290.301 197.386,269.100 197.511 L 247.600 197.639 247.601 189.519 L 247.602 181.400 250.354 178.700 C 253.615 175.501,253.437 175.528,255.175 177.968 C 259.300 183.759,267.079 185.233,272.965 181.338 C 275.635 179.571,276.097 178.979,278.450 174.305 C 280.541 170.154,277.128 161.407,272.493 159.040 C 270.993 158.274,271.099 157.786,273.201 155.800 C 275.398 153.725,275.600 152.970,275.600 146.843 C 275.600 140.186,274.981 140.784,282.276 140.383 C 285.463 140.207,288.174 139.959,288.301 139.832 C 288.699 139.434,293.095 139.578,295.094 140.053 M269.600 146.498 L 269.600 151.796 255.900 165.499 L 242.200 179.203 242.096 187.301 C 241.955 198.311,242.025 198.207,235.706 196.765 C 232.187 195.962,228.237 194.881,226.900 194.354 C 226.405 194.159,225.595 193.843,225.100 193.651 C 223.633 193.081,220.216 191.429,220.000 191.185 C 219.890 191.060,219.153 190.657,218.362 190.290 C 214.864 188.664,206.620 181.595,203.795 177.800 C 203.140 176.920,202.492 176.110,202.354 176.000 C 200.805 174.765,196.024 165.559,194.771 161.400 C 194.506 160.520,194.153 159.440,193.986 159.000 C 193.820 158.560,193.497 157.210,193.268 156.000 C 193.039 154.790,192.660 152.841,192.426 151.669 C 191.515 147.115,191.615 147.018,197.600 146.651 C 199.910 146.509,204.230 146.211,207.200 145.989 C 210.170 145.766,215.030 145.403,218.000 145.183 C 220.970 144.962,225.830 144.601,228.800 144.381 C 231.770 144.160,236.720 143.798,239.800 143.575 C 242.880 143.353,247.560 143.009,250.200 142.812 C 252.840 142.615,257.662 142.285,260.915 142.079 C 264.167 141.873,266.942 141.591,267.081 141.452 C 267.220 141.313,267.843 141.200,268.467 141.200 L 269.600 141.200 269.600 146.498 M225.329 156.311 C 223.558 156.589,223.400 157.290,223.400 164.843 C 223.400 172.694,223.548 173.157,226.073 173.187 C 228.294 173.214,228.800 171.662,228.800 164.818 C 228.800 157.173,228.261 155.851,225.329 156.311 M268.553 163.182 C 270.031 163.744,272.800 166.379,272.800 167.223 C 272.800 167.624,272.980 168.064,273.200 168.200 C 273.911 168.639,273.606 171.745,272.673 173.569 C 269.811 179.165,262.273 179.498,259.144 174.168 C 257.682 171.678,258.031 170.881,262.435 166.664 C 266.591 162.684,266.852 162.536,268.553 163.182 M225.275 240.933 C 204.691 261.496,203.920 262.321,203.920 263.760 C 203.920 265.477,204.798 266.368,206.510 266.387 C 207.618 266.400,248.705 226.020,249.949 223.695 C 250.858 221.998,249.324 219.600,247.329 219.600 C 246.939 219.600,237.181 229.039,225.275 240.933 M294.278 220.044 C 291.368 221.737,292.241 223.072,303.760 234.541 C 310.218 240.971,314.155 245.198,314.536 246.108 C 315.804 249.144,334.936 267.600,336.814 267.600 C 339.153 267.600,340.400 266.261,340.400 263.750 L 340.400 261.864 332.700 254.208 C 328.465 249.997,324.251 245.753,323.336 244.776 C 319.961 241.173,315.107 236.800,314.482 236.800 C 314.128 236.800,309.943 232.930,305.182 228.200 C 296.597 219.672,295.863 219.123,294.278 220.044 M269.423 222.889 C 268.871 223.677,268.800 227.695,268.800 258.219 L 268.800 292.661 269.726 293.530 C 270.867 294.603,272.019 294.637,273.256 293.635 L 274.200 292.871 274.200 258.097 C 274.200 229.211,274.107 223.211,273.651 222.661 C 272.807 221.644,270.196 221.784,269.423 222.889 M312.295 258.677 C 310.532 259.136,310.400 260.321,310.400 275.680 C 310.400 287.505,310.282 290.720,309.765 293.000 C 309.415 294.540,309.034 296.297,308.918 296.905 C 308.803 297.513,308.549 298.108,308.354 298.229 C 308.159 298.349,308.000 298.718,308.000 299.049 C 308.000 305.160,295.408 318.435,285.900 322.347 C 283.586 323.299,282.952 323.521,281.400 323.921 C 280.520 324.147,279.080 324.562,278.200 324.843 C 276.958 325.240,267.785 325.382,237.200 325.479 C 173.651 325.680,81.341 325.629,80.723 325.392 C 79.643 324.977,78.400 326.558,78.400 328.347 C 78.400 329.256,78.568 330.000,78.773 330.000 C 78.978 330.000,79.260 330.360,79.400 330.800 C 79.562 331.311,80.005 331.600,80.627 331.600 C 81.162 331.600,81.600 331.780,81.600 332.000 C 81.600 332.265,100.733 332.400,138.200 332.400 L 194.800 332.400 194.800 340.400 C 194.800 345.467,194.947 348.400,195.200 348.400 C 195.420 348.400,195.600 348.605,195.600 348.856 C 195.600 350.234,198.832 350.868,200.917 349.900 C 202.095 349.353,202.271 348.989,201.500 348.694 C 201.113 348.546,201.045 346.573,201.200 339.952 L 201.400 331.400 238.400 331.149 C 274.504 330.905,276.997 330.814,281.400 329.582 C 282.280 329.336,283.497 329.038,284.105 328.921 C 284.713 328.804,285.308 328.549,285.429 328.354 C 285.549 328.159,285.952 327.995,286.324 327.990 C 287.272 327.976,293.736 324.713,295.570 323.322 C 295.916 323.060,297.280 322.043,298.600 321.063 C 301.642 318.806,305.115 315.148,307.586 311.600 C 308.123 310.830,308.673 310.110,308.810 310.000 C 308.947 309.890,309.186 309.455,309.342 309.033 C 309.550 308.472,309.745 308.385,310.069 308.709 C 310.631 309.271,311.183 348.468,310.635 348.864 C 309.895 349.399,311.560 350.400,313.190 350.400 C 314.405 350.400,315.094 350.143,315.818 349.418 L 316.800 348.436 316.800 303.898 C 316.800 269.791,316.688 259.248,316.320 258.880 C 315.853 258.413,313.719 258.305,312.295 258.677 "
              stroke="none" fill="#45270e" fill-rule="evenodd"></path>
        <path id="path2"
              d="M181.300 89.901 L 82.011 90.002 81.905 117.501 L 81.800 145.000 109.600 144.898 C 138.128 144.794,144.741 144.553,167.000 142.804 C 170.080 142.562,174.895 142.192,177.700 141.982 C 180.505 141.772,185.095 141.426,187.900 141.213 C 196.841 140.536,204.052 139.995,209.400 139.602 C 212.260 139.391,216.940 139.038,219.800 138.816 C 224.799 138.429,229.916 138.047,241.300 137.210 C 244.215 136.996,248.940 136.639,251.800 136.418 C 254.660 136.196,259.430 135.834,262.400 135.614 C 265.370 135.393,270.050 135.044,272.800 134.838 C 292.961 133.327,295.055 133.328,299.367 134.859 C 301.929 135.769,304.779 137.238,306.361 138.466 C 307.953 139.701,307.951 139.047,306.353 135.905 C 306.159 135.523,306.000 134.954,306.000 134.639 C 306.000 133.622,302.609 127.473,299.500 122.850 C 298.455 121.297,297.600 119.927,297.600 119.806 C 297.600 119.685,296.925 118.462,296.100 117.088 C 295.275 115.714,294.330 114.052,294.001 113.395 C 293.671 112.738,293.311 112.110,293.201 112.000 C 292.949 111.749,292.106 110.273,291.030 108.200 C 290.574 107.320,290.110 106.510,290.000 106.400 C 289.890 106.290,289.558 105.770,289.262 105.245 C 288.163 103.293,287.176 101.558,286.334 100.100 C 284.735 97.329,281.859 92.211,281.221 91.000 L 280.588 89.800 181.300 89.901 M185.147 148.187 C 185.032 148.301,182.072 148.586,178.569 148.820 C 172.393 149.231,168.502 149.514,157.200 150.375 C 154.230 150.602,149.870 150.907,147.511 151.054 L 143.223 151.321 143.055 176.560 C 142.894 200.960,142.731 205.370,141.961 206.180 C 141.763 206.389,141.600 206.886,141.600 207.285 C 141.600 207.684,141.441 208.323,141.247 208.705 C 141.052 209.087,140.652 209.940,140.357 210.600 C 138.353 215.088,133.373 220.232,128.988 222.342 C 127.455 223.080,125.887 223.845,125.505 224.042 C 125.123 224.239,124.369 224.400,123.829 224.400 C 123.289 224.400,122.736 224.580,122.600 224.800 C 122.464 225.020,121.769 225.200,121.056 225.200 C 120.343 225.200,119.589 225.362,119.380 225.559 C 119.171 225.756,118.280 226.015,117.400 226.133 C 116.520 226.251,114.900 226.548,113.800 226.792 C 112.700 227.037,110.990 227.400,110.000 227.600 C 109.010 227.800,107.300 228.160,106.200 228.400 C 105.100 228.640,103.390 229.000,102.400 229.200 C 101.410 229.400,99.745 229.752,98.700 229.982 C 90.039 231.889,83.033 233.107,81.645 232.948 C 81.070 232.883,80.915 232.925,81.300 233.044 C 82.122 233.296,82.420 324.593,81.600 324.867 C 81.380 324.940,124.954 324.954,178.431 324.898 C 241.893 324.831,275.920 324.657,276.405 324.398 C 276.813 324.179,277.641 324.000,278.245 324.000 C 279.250 324.000,280.942 323.568,283.000 322.785 C 283.440 322.618,284.430 322.246,285.200 321.959 C 291.437 319.635,300.620 312.082,303.229 307.132 C 303.499 306.619,303.831 306.110,303.968 306.000 C 304.228 305.790,306.612 300.920,307.296 299.200 C 307.514 298.650,307.852 297.887,308.047 297.505 C 308.241 297.123,308.400 296.394,308.400 295.885 C 308.400 295.376,308.563 294.789,308.763 294.580 C 309.458 293.852,309.686 289.705,309.852 274.713 L 310.019 259.627 311.347 258.613 C 312.078 258.056,313.054 257.600,313.516 257.600 C 314.324 257.600,314.362 257.383,314.478 252.100 L 314.600 246.600 303.300 235.158 C 291.708 223.421,291.411 223.034,292.500 221.103 C 294.626 217.332,295.772 217.905,305.487 227.600 C 310.117 232.220,314.009 236.000,314.137 236.000 C 314.266 236.000,314.422 232.040,314.485 227.200 L 314.600 218.399 313.281 218.400 C 312.368 218.400,311.660 218.074,310.981 217.342 L 310.000 216.283 310.000 204.257 L 310.000 192.230 308.100 194.225 C 304.522 197.981,300.769 200.349,295.400 202.240 L 292.200 203.367 268.600 203.584 C 239.612 203.849,234.971 203.521,226.166 200.582 C 221.576 199.049,214.531 195.569,212.642 193.900 C 212.206 193.515,211.613 193.200,211.325 193.200 C 211.036 193.200,210.800 193.059,210.800 192.886 C 210.800 192.714,210.226 192.234,209.525 191.819 C 206.071 189.779,197.178 180.017,194.750 175.600 C 194.447 175.050,194.106 174.510,193.990 174.400 C 193.748 174.169,190.498 167.485,189.905 166.000 C 189.686 165.450,189.348 164.687,189.153 164.305 C 188.959 163.923,188.800 163.259,188.800 162.829 C 188.800 162.399,188.620 161.936,188.400 161.800 C 188.180 161.664,188.000 161.034,188.000 160.400 C 188.000 159.766,187.839 159.148,187.642 159.026 C 187.280 158.802,187.215 158.449,186.425 152.450 C 185.995 149.183,185.569 147.764,185.147 148.187 M250.010 220.211 C 252.413 222.769,253.206 221.791,229.594 245.406 C 215.497 259.505,207.873 266.852,207.184 267.004 C 205.071 267.468,202.800 265.567,202.800 263.336 C 202.800 262.939,212.274 253.146,224.492 240.916 C 248.522 216.858,247.579 217.623,250.010 220.211 M273.787 222.213 L 275.200 223.627 275.200 257.819 C 275.200 293.291,275.215 292.946,273.600 294.279 C 272.521 295.170,270.240 294.907,269.170 293.768 L 268.200 292.736 268.200 257.924 L 268.200 223.112 269.585 221.956 C 271.381 220.456,272.072 220.499,273.787 222.213 M310.093 319.600 C 310.093 320.370,310.175 320.685,310.276 320.300 C 310.376 319.915,310.376 319.285,310.276 318.900 C 310.175 318.515,310.093 318.830,310.093 319.600 M310.179 334.000 C 310.179 341.150,310.233 344.075,310.299 340.500 C 310.366 336.925,310.366 331.075,310.299 327.500 C 310.233 323.925,310.179 326.850,310.179 334.000 "
              stroke="none" fill="#98a49d" fill-rule="evenodd"></path>
        <path id="path3"
              d="M286.791 154.528 C 286.677 154.650,283.930 154.787,280.687 154.832 L 274.790 154.914 273.334 156.525 C 272.004 157.997,271.944 158.162,272.639 158.427 C 277.998 160.469,281.104 170.097,278.308 176.003 C 273.569 186.013,261.398 186.814,254.047 177.600 L 253.249 176.600 250.625 179.188 L 248.000 181.777 248.000 189.288 L 248.000 196.800 269.181 196.800 C 280.831 196.800,290.776 196.639,291.281 196.442 C 291.787 196.245,293.010 195.848,294.000 195.560 C 300.252 193.743,306.110 187.820,308.796 180.600 C 309.779 177.956,310.000 175.209,310.000 165.640 L 310.000 155.291 308.700 155.043 C 306.964 154.712,287.057 154.244,286.791 154.528 M261.000 156.042 C 259.020 156.225,255.330 156.555,252.800 156.773 C 250.270 156.992,243.925 157.575,238.700 158.069 L 229.200 158.968 229.200 165.184 C 229.199 172.376,228.723 173.600,225.929 173.600 C 222.885 173.600,222.307 172.138,222.477 164.861 C 222.596 159.737,222.574 159.568,221.800 159.746 C 221.360 159.847,218.750 160.145,216.000 160.408 C 209.736 161.007,210.000 160.913,210.000 162.545 C 210.000 173.258,229.041 195.657,239.023 196.687 L 241.200 196.912 241.200 188.630 C 241.200 178.475,239.833 180.860,253.540 167.100 C 259.840 160.775,264.906 155.624,264.797 155.654 C 264.689 155.684,262.980 155.858,261.000 156.042 M262.492 167.308 C 258.499 171.317,258.392 171.561,259.621 173.862 C 263.746 181.588,275.635 175.558,272.250 167.457 C 270.222 162.604,267.221 162.558,262.492 167.308 "
              stroke="none" fill="#e5edfa" fill-rule="evenodd" style=""></path>
        <path id="path4"
              d="M281.100 140.689 C 281.815 140.778,282.985 140.778,283.700 140.689 C 284.415 140.601,283.830 140.528,282.400 140.528 C 280.970 140.528,280.385 140.601,281.100 140.689 M259.507 142.290 C 260.226 142.379,261.306 142.377,261.907 142.286 C 262.508 142.195,261.920 142.122,260.600 142.124 C 259.280 142.126,258.788 142.201,259.507 142.290 M248.905 143.087 C 249.514 143.179,250.414 143.177,250.905 143.082 C 251.397 142.987,250.900 142.911,249.800 142.914 C 248.700 142.917,248.297 142.995,248.905 143.087 M245.300 143.476 C 245.685 143.576,246.315 143.576,246.700 143.476 C 247.085 143.375,246.770 143.293,246.000 143.293 C 245.230 143.293,244.915 143.375,245.300 143.476 M237.900 143.882 C 238.395 143.978,239.205 143.978,239.700 143.882 C 240.195 143.787,239.790 143.709,238.800 143.709 C 237.810 143.709,237.405 143.787,237.900 143.882 M304.383 145.300 C 305.364 146.345,306.219 147.200,306.283 147.200 C 306.584 147.200,306.266 146.841,304.500 145.183 L 302.600 143.400 304.383 145.300 M227.100 144.682 C 227.595 144.778,228.405 144.778,228.900 144.682 C 229.395 144.587,228.990 144.509,228.000 144.509 C 227.010 144.509,226.605 144.587,227.100 144.682 M216.705 145.483 C 217.202 145.579,217.922 145.575,218.305 145.475 C 218.687 145.375,218.280 145.296,217.400 145.301 C 216.520 145.305,216.207 145.387,216.705 145.483 M213.300 145.876 C 213.685 145.976,214.315 145.976,214.700 145.876 C 215.085 145.775,214.770 145.693,214.000 145.693 C 213.230 145.693,212.915 145.775,213.300 145.876 M205.905 146.283 C 206.402 146.379,207.122 146.375,207.505 146.275 C 207.887 146.175,207.480 146.096,206.600 146.101 C 205.720 146.105,205.407 146.187,205.905 146.283 M202.500 146.676 C 202.885 146.776,203.515 146.776,203.900 146.676 C 204.285 146.575,203.970 146.493,203.200 146.493 C 202.430 146.493,202.115 146.575,202.500 146.676 M195.105 147.083 C 195.602 147.179,196.322 147.175,196.705 147.075 C 197.087 146.975,196.680 146.896,195.800 146.901 C 194.920 146.905,194.607 146.987,195.105 147.083 M108.714 151.499 L 136.428 151.605 136.314 177.406 C 136.251 191.597,136.336 202.680,136.503 202.036 C 136.670 201.392,136.760 189.735,136.703 176.132 L 136.600 151.400 108.800 151.396 L 81.000 151.392 108.714 151.499 M142.588 176.600 C 142.588 190.240,142.638 195.878,142.700 189.129 C 142.761 182.380,142.761 171.220,142.700 164.329 C 142.638 157.438,142.588 162.960,142.588 176.600 M224.663 155.900 C 224.562 156.065,225.179 156.209,226.033 156.219 C 226.927 156.230,227.377 156.106,227.093 155.925 C 226.462 155.525,224.903 155.509,224.663 155.900 M202.575 176.132 C 203.191 176.939,203.776 177.600,203.875 177.600 C 204.153 177.600,202.421 175.260,201.909 174.944 C 201.659 174.789,201.959 175.324,202.575 176.132 M204.400 178.510 C 204.400 178.571,205.795 179.966,207.500 181.610 L 210.600 184.600 207.610 181.500 C 204.833 178.621,204.400 178.217,204.400 178.510 M233.633 196.144 C 233.725 196.224,234.610 196.396,235.600 196.527 C 236.802 196.686,237.134 196.647,236.600 196.410 C 235.836 196.072,233.286 195.843,233.633 196.144 M131.273 212.408 C 130.103 213.723,128.348 215.266,127.373 215.837 C 125.337 217.030,124.981 217.541,126.863 216.567 C 128.323 215.813,131.706 212.736,132.862 211.112 C 134.081 209.401,133.602 209.791,131.273 212.408 M118.000 219.200 C 117.196 219.457,117.157 219.523,117.800 219.532 C 118.240 219.538,118.960 219.389,119.400 219.200 C 120.419 218.762,119.368 218.762,118.000 219.200 M114.000 220.000 C 113.196 220.257,113.157 220.323,113.800 220.332 C 114.240 220.338,114.960 220.189,115.400 220.000 C 116.419 219.562,115.368 219.562,114.000 220.000 M110.200 220.800 C 109.111 221.077,109.093 221.107,110.000 221.125 C 110.550 221.135,111.360 220.989,111.800 220.800 C 112.786 220.376,111.866 220.376,110.200 220.800 M106.200 221.600 C 105.111 221.877,105.093 221.907,106.000 221.925 C 106.550 221.935,107.360 221.789,107.800 221.600 C 108.786 221.176,107.866 221.176,106.200 221.600 M89.000 225.210 C 88.466 225.447,88.798 225.486,90.000 225.327 C 90.990 225.196,91.875 225.024,91.967 224.944 C 92.314 224.643,89.764 224.872,89.000 225.210 M310.154 313.600 C 310.154 316.350,310.218 317.475,310.296 316.100 C 310.374 314.725,310.374 312.475,310.296 311.100 C 310.218 309.725,310.154 310.850,310.154 313.600 M304.575 315.700 L 303.400 317.000 304.700 315.825 C 305.415 315.179,306.000 314.594,306.000 314.525 C 306.000 314.216,305.670 314.488,304.575 315.700 M299.800 320.276 C 298.700 321.287,298.340 321.747,299.000 321.297 C 300.124 320.530,302.344 318.378,301.970 318.418 C 301.876 318.428,300.900 319.264,299.800 320.276 M275.800 330.800 C 274.722 331.074,274.702 331.106,275.600 331.113 C 276.150 331.117,277.050 330.976,277.600 330.800 C 278.944 330.369,277.492 330.369,275.800 330.800 "
              stroke="none" fill="#82875b" fill-rule="evenodd"></path>
        <path id="path5"
              d="M175.400 72.398 C 227.540 72.509,270.470 72.748,270.800 72.930 C 271.130 73.111,271.051 72.976,270.624 72.630 C 269.921 72.060,260.813 72.009,175.224 72.098 L 80.600 72.197 175.400 72.398 M81.260 89.563 C 80.649 89.941,80.788 145.000,81.400 145.000 C 81.662 145.000,81.836 135.498,81.903 117.500 L 82.006 90.000 181.303 89.968 C 235.916 89.951,280.420 89.876,280.200 89.801 C 279.380 89.523,81.707 89.286,81.260 89.563 M290.505 140.287 C 291.114 140.379,292.014 140.377,292.505 140.282 C 292.997 140.187,292.500 140.111,291.400 140.114 C 290.300 140.117,289.897 140.195,290.505 140.287 M286.505 140.687 C 287.114 140.779,288.014 140.777,288.505 140.682 C 288.997 140.587,288.500 140.511,287.400 140.514 C 286.300 140.517,285.897 140.595,286.505 140.687 M277.400 141.157 L 275.800 141.400 275.784 147.500 L 275.768 153.601 275.894 147.600 L 276.021 141.600 277.310 141.560 C 278.020 141.538,279.050 141.376,279.600 141.200 C 280.827 140.807,279.829 140.788,277.400 141.157 M264.707 142.290 C 265.426 142.379,266.506 142.377,267.107 142.286 C 267.708 142.195,267.120 142.122,265.800 142.124 C 264.480 142.126,263.988 142.201,264.707 142.290 M269.351 146.800 C 269.351 149.330,269.416 150.365,269.496 149.100 C 269.575 147.835,269.575 145.765,269.496 144.500 C 269.416 143.235,269.351 144.270,269.351 146.800 M301.200 143.077 C 301.750 143.469,303.280 144.776,304.600 145.982 L 307.000 148.174 304.897 145.972 C 303.741 144.760,302.211 143.453,301.497 143.067 C 300.247 142.391,300.236 142.391,301.200 143.077 M253.500 143.089 C 254.215 143.178,255.385 143.178,256.100 143.089 C 256.815 143.001,256.230 142.928,254.800 142.928 C 253.370 142.928,252.785 143.001,253.500 143.089 M242.691 143.889 C 243.401 143.977,244.661 143.979,245.491 143.892 C 246.321 143.805,245.740 143.733,244.200 143.731 C 242.660 143.729,241.981 143.800,242.691 143.889 M231.511 144.693 C 232.451 144.778,233.891 144.777,234.711 144.691 C 235.530 144.605,234.760 144.536,233.000 144.537 C 231.240 144.539,230.570 144.609,231.511 144.693 M220.300 145.493 C 221.235 145.577,222.765 145.577,223.700 145.493 C 224.635 145.409,223.870 145.340,222.000 145.340 C 220.130 145.340,219.365 145.409,220.300 145.493 M209.911 146.293 C 210.851 146.378,212.291 146.377,213.111 146.291 C 213.930 146.205,213.160 146.136,211.400 146.137 C 209.640 146.139,208.970 146.209,209.911 146.293 M199.111 147.093 C 200.051 147.178,201.491 147.177,202.311 147.091 C 203.130 147.005,202.360 146.936,200.600 146.937 C 198.840 146.939,198.170 147.009,199.111 147.093 M192.400 148.600 C 192.400 149.150,192.469 149.600,192.553 149.600 C 192.638 149.600,192.793 149.150,192.898 148.600 C 193.003 148.050,192.934 147.600,192.745 147.600 C 192.555 147.600,192.400 148.050,192.400 148.600 M192.901 151.400 C 192.905 152.280,192.987 152.593,193.083 152.095 C 193.179 151.598,193.175 150.878,193.075 150.495 C 192.975 150.113,192.896 150.520,192.901 151.400 M108.931 151.900 L 136.061 152.006 135.931 178.066 C 135.859 192.399,135.925 203.423,136.077 202.563 C 136.229 201.703,136.364 189.885,136.377 176.300 L 136.400 151.600 109.100 151.697 L 81.800 151.794 108.931 151.900 M224.636 155.542 C 224.519 155.730,224.868 155.800,225.411 155.696 C 226.589 155.471,228.302 156.497,228.796 157.723 C 229.050 158.355,229.156 158.414,229.175 157.936 C 229.232 156.443,225.346 154.394,224.636 155.542 M222.554 157.777 C 222.432 158.094,222.403 158.679,222.489 159.077 C 222.587 159.528,222.724 159.312,222.854 158.500 C 223.071 157.138,222.930 156.796,222.554 157.777 M194.244 158.600 C 194.573 160.071,194.802 160.390,194.794 159.367 C 194.791 158.945,194.605 158.330,194.382 158.000 C 194.085 157.562,194.048 157.724,194.244 158.600 M209.562 183.326 C 210.182 184.104,213.200 186.568,213.200 186.296 C 213.200 186.202,212.255 185.337,211.100 184.374 C 209.945 183.410,209.253 182.939,209.562 183.326 M214.600 187.365 C 215.260 187.932,215.965 188.397,216.167 188.398 C 216.601 188.400,216.596 188.396,214.800 187.237 L 213.400 186.334 214.600 187.365 M135.067 204.667 C 134.920 204.813,134.811 205.308,134.825 205.767 C 134.849 206.533,134.882 206.523,135.234 205.642 C 135.626 204.663,135.544 204.189,135.067 204.667 M134.122 207.500 C 133.175 210.123,127.603 216.000,126.063 216.000 C 125.808 216.000,125.600 216.190,125.600 216.423 C 125.600 216.965,127.625 215.782,129.652 214.056 C 131.684 212.325,135.433 206.800,134.575 206.800 C 134.465 206.800,134.261 207.115,134.122 207.500 M121.200 218.000 C 120.405 218.514,121.404 218.514,122.600 218.000 L 123.400 217.656 122.600 217.634 C 122.160 217.622,121.530 217.787,121.200 218.000 M117.600 218.821 C 117.170 219.114,117.454 219.154,118.600 218.962 C 120.584 218.630,120.904 218.398,119.367 218.406 C 118.725 218.409,117.930 218.596,117.600 218.821 M314.667 218.667 C 314.221 219.112,314.351 236.400,314.800 236.400 C 315.055 236.400,315.200 233.133,315.200 227.400 C 315.200 222.450,315.140 218.400,315.067 218.400 C 314.993 218.400,314.813 218.520,314.667 218.667 M113.784 219.626 C 113.605 219.915,114.012 219.962,115.061 219.772 C 117.103 219.403,117.255 219.200,115.490 219.200 C 114.697 219.200,113.929 219.391,113.784 219.626 M110.204 220.394 C 110.052 220.640,110.455 220.694,111.280 220.537 C 113.049 220.200,113.201 220.000,111.690 220.000 C 111.007 220.000,110.338 220.177,110.204 220.394 M106.200 221.200 C 105.916 221.660,106.564 221.660,108.000 221.200 C 108.955 220.894,108.943 220.878,107.724 220.840 C 107.022 220.818,106.336 220.980,106.200 221.200 M102.590 222.016 C 102.421 222.289,102.723 222.338,103.466 222.160 C 104.999 221.792,105.144 221.600,103.890 221.600 C 103.317 221.600,102.732 221.787,102.590 222.016 M98.600 222.800 C 98.305 223.278,99.089 223.278,100.200 222.800 C 100.914 222.493,100.885 222.453,99.924 222.428 C 99.332 222.413,98.736 222.580,98.600 222.800 M95.000 223.600 C 94.705 224.078,95.489 224.078,96.600 223.600 C 97.314 223.293,97.285 223.253,96.324 223.228 C 95.732 223.213,95.136 223.380,95.000 223.600 M91.400 224.400 C 91.108 224.873,91.499 224.873,92.600 224.400 C 93.371 224.069,93.369 224.055,92.524 224.028 C 92.042 224.013,91.536 224.180,91.400 224.400 M87.400 225.200 C 87.108 225.673,87.499 225.673,88.600 225.200 C 89.371 224.869,89.369 224.855,88.524 224.828 C 88.042 224.813,87.536 224.980,87.400 225.200 M82.600 226.000 C 82.316 226.460,82.964 226.460,84.400 226.000 C 85.355 225.694,85.343 225.678,84.124 225.640 C 83.422 225.618,82.736 225.780,82.600 226.000 M80.800 279.000 C 80.800 319.444,80.870 324.800,81.400 324.800 C 81.930 324.800,82.000 319.444,82.000 279.000 C 82.000 238.556,81.930 233.200,81.400 233.200 C 80.870 233.200,80.800 238.556,80.800 279.000 M314.400 252.400 C 314.400 255.600,314.554 257.600,314.800 257.600 C 315.046 257.600,315.200 255.600,315.200 252.400 C 315.200 249.200,315.046 247.200,314.800 247.200 C 314.554 247.200,314.400 249.200,314.400 252.400 M304.975 315.700 L 303.800 317.000 305.100 315.825 C 305.815 315.179,306.400 314.594,306.400 314.525 C 306.400 314.216,306.070 314.488,304.975 315.700 M300.575 320.100 L 299.400 321.400 300.700 320.225 C 301.912 319.130,302.184 318.800,301.875 318.800 C 301.806 318.800,301.221 319.385,300.575 320.100 M202.080 331.680 C 201.733 332.027,201.624 334.329,201.687 339.980 L 201.774 347.800 201.987 339.800 L 202.200 331.800 239.200 331.597 L 276.200 331.394 239.380 331.297 C 211.167 331.223,202.448 331.312,202.080 331.680 "
              stroke="none" fill="#b6dead" fill-rule="evenodd"></path>
        <path id="path6"
              d="M272.981 156.438 L 271.400 158.076 272.400 158.717 C 282.559 165.231,280.738 179.232,269.200 183.324 C 268.735 183.489,268.761 183.544,269.313 183.568 C 271.778 183.678,276.591 179.630,278.308 176.003 C 281.104 170.097,277.998 160.469,272.639 158.427 C 271.946 158.163,272.013 157.988,273.386 156.469 C 275.324 154.324,275.043 154.302,272.981 156.438 M253.524 167.115 C 239.841 180.852,241.200 178.488,241.200 188.548 L 241.200 196.749 239.900 196.927 L 238.600 197.104 240.000 197.052 L 241.400 197.000 241.600 188.328 L 241.800 179.657 247.460 173.928 C 250.573 170.778,255.862 165.450,259.215 162.088 C 262.567 158.727,265.232 155.899,265.137 155.804 C 265.042 155.709,259.816 160.799,253.524 167.115 M310.093 165.694 C 309.985 177.654,309.826 178.660,307.188 184.102 C 305.344 187.906,298.826 194.400,296.852 194.400 C 296.629 194.400,296.337 194.578,296.203 194.795 C 295.111 196.563,301.463 192.086,304.120 189.217 C 309.360 183.557,310.489 179.217,310.313 165.400 L 310.185 155.400 310.093 165.694 M228.800 165.130 C 228.800 172.262,228.438 173.200,225.683 173.200 C 223.510 173.200,223.036 171.933,222.774 165.420 L 222.548 159.800 222.474 165.326 C 222.382 172.214,222.948 173.559,225.953 173.587 C 228.725 173.613,229.199 172.374,229.200 165.100 C 229.200 161.635,229.110 158.800,229.000 158.800 C 228.890 158.800,228.800 161.649,228.800 165.130 M262.292 167.107 C 258.050 171.366,257.914 171.700,259.396 174.230 C 262.735 179.926,271.390 178.667,273.107 172.235 C 274.231 168.024,271.138 163.200,267.312 163.200 C 266.418 163.200,265.379 164.009,262.292 167.107 M270.159 164.870 C 273.815 167.884,273.703 173.048,269.913 176.115 C 266.903 178.552,261.492 177.368,259.621 173.862 C 258.392 171.561,258.499 171.317,262.492 167.308 C 266.775 163.006,267.585 162.749,270.159 164.870 M250.490 178.910 L 247.582 181.837 247.691 189.618 L 247.800 197.400 266.850 197.504 C 277.328 197.561,286.868 197.447,288.050 197.251 C 289.463 197.016,282.970 196.877,269.100 196.847 L 248.000 196.800 248.000 189.288 L 248.000 181.777 250.625 179.188 L 253.249 176.600 254.052 177.600 C 256.705 180.907,260.396 183.614,262.200 183.575 C 262.640 183.566,262.033 183.187,260.851 182.733 C 258.745 181.924,255.822 179.456,254.171 177.091 L 253.397 175.983 250.490 178.910 M264.291 183.889 C 265.001 183.977,266.261 183.979,267.091 183.892 C 267.921 183.805,267.340 183.733,265.800 183.731 C 264.260 183.729,263.581 183.800,264.291 183.889 M293.400 195.693 C 291.069 196.484,290.488 196.837,291.857 196.628 C 293.278 196.412,296.124 195.260,295.200 195.275 C 294.870 195.281,294.060 195.468,293.400 195.693 "
              stroke="none" fill="#a5843a" fill-rule="evenodd"></path>
        <path id="path7"
              d="M129.300 71.900 C 155.205 71.957,197.595 71.957,223.500 71.900 C 249.405 71.843,228.210 71.797,176.400 71.797 C 124.590 71.797,103.395 71.843,129.300 71.900 M281.525 91.000 C 281.972 91.880,282.638 92.960,283.005 93.400 C 283.372 93.840,283.183 93.300,282.583 92.200 C 281.247 89.746,280.401 88.788,281.525 91.000 M283.650 94.638 C 283.953 95.524,288.940 103.993,289.077 103.856 C 289.239 103.695,284.484 95.215,283.888 94.600 C 283.630 94.334,283.550 94.347,283.650 94.638 M290.256 106.300 C 291.644 108.718,292.400 109.851,292.400 109.510 C 292.400 109.119,289.597 104.400,289.364 104.400 C 289.255 104.400,289.657 105.255,290.256 106.300 M293.086 111.200 C 293.534 111.970,295.024 114.580,296.397 117.000 C 299.185 121.912,302.885 127.648,303.117 127.416 C 303.200 127.333,302.380 125.945,301.295 124.333 C 300.210 122.720,297.931 118.970,296.231 116.000 C 294.531 113.030,292.945 110.420,292.706 110.200 C 292.467 109.980,292.638 110.430,293.086 111.200 M304.669 130.955 C 305.490 132.614,306.229 133.905,306.311 133.823 C 306.521 133.613,303.993 128.443,303.545 128.166 C 303.342 128.040,303.848 129.295,304.669 130.955 M289.113 134.295 C 290.276 134.376,292.076 134.376,293.113 134.293 C 294.151 134.211,293.200 134.145,291.000 134.146 C 288.800 134.147,287.951 134.214,289.113 134.295 M278.400 134.800 L 276.200 135.070 278.600 135.100 C 279.920 135.116,281.900 134.990,283.000 134.818 L 285.000 134.507 282.800 134.519 C 281.590 134.525,279.610 134.652,278.400 134.800 M296.600 134.800 C 297.796 135.314,298.795 135.314,298.000 134.800 C 297.670 134.587,297.040 134.422,296.600 134.434 L 295.800 134.456 296.600 134.800 M306.430 134.415 C 306.413 134.534,306.754 135.614,307.186 136.815 C 307.618 138.017,307.964 138.640,307.956 138.200 C 307.942 137.477,306.500 133.902,306.430 134.415 M267.600 135.600 L 265.400 135.870 267.800 135.895 C 269.120 135.909,270.650 135.776,271.200 135.600 C 272.493 135.186,270.979 135.186,267.600 135.600 M256.800 136.400 L 254.600 136.670 257.000 136.700 C 258.320 136.716,260.300 136.590,261.400 136.418 L 263.400 136.107 261.200 136.119 C 259.990 136.125,258.010 136.252,256.800 136.400 M303.302 137.305 C 304.567 138.017,305.923 138.870,306.314 139.200 C 308.393 140.954,308.400 140.957,308.400 140.025 C 308.400 139.545,308.222 139.263,308.003 139.398 C 307.785 139.533,306.840 139.119,305.903 138.478 C 304.015 137.186,301.812 135.997,301.320 136.005 C 301.144 136.007,302.036 136.592,303.302 137.305 M246.400 137.200 L 244.200 137.470 246.600 137.500 C 247.920 137.516,249.900 137.390,251.000 137.218 L 253.000 136.907 250.800 136.919 C 249.590 136.925,247.610 137.052,246.400 137.200 M235.400 138.000 L 233.000 138.266 235.600 138.303 C 237.030 138.324,239.010 138.197,240.000 138.020 L 241.800 137.700 239.800 137.717 C 238.700 137.727,236.720 137.854,235.400 138.000 M224.600 138.800 L 221.800 139.059 224.600 139.100 C 226.140 139.122,228.210 138.997,229.200 138.820 L 231.000 138.500 229.200 138.521 C 228.210 138.532,226.140 138.658,224.600 138.800 M214.000 139.600 L 211.000 139.856 214.200 139.898 C 215.960 139.922,218.210 139.797,219.200 139.620 L 221.000 139.300 219.000 139.322 C 217.900 139.334,215.650 139.459,214.000 139.600 M289.700 139.891 C 290.525 139.978,291.875 139.978,292.700 139.891 C 293.525 139.805,292.850 139.734,291.200 139.734 C 289.550 139.734,288.875 139.805,289.700 139.891 M203.000 140.400 L 199.800 140.653 203.000 140.697 C 204.760 140.721,207.010 140.597,208.000 140.420 L 209.800 140.100 208.000 140.123 C 207.010 140.136,204.760 140.261,203.000 140.400 M191.600 141.200 L 187.800 141.447 191.600 141.494 C 193.690 141.520,196.210 141.397,197.200 141.220 L 199.000 140.900 197.200 140.927 C 196.210 140.941,193.690 141.064,191.600 141.200 M267.700 141.476 C 268.085 141.576,268.715 141.576,269.100 141.476 C 269.485 141.375,269.170 141.293,268.400 141.293 C 267.630 141.293,267.315 141.375,267.700 141.476 M181.600 142.000 L 178.200 142.251 181.400 142.302 C 183.160 142.331,185.320 142.205,186.200 142.023 L 187.800 141.692 186.400 141.721 C 185.630 141.736,183.470 141.862,181.600 142.000 M169.800 142.866 C 167.380 143.059,163.420 143.366,161.000 143.549 C 157.395 143.822,157.070 143.894,159.200 143.944 C 161.646 144.003,168.004 143.549,174.800 142.830 C 178.906 142.396,175.385 142.421,169.800 142.866 M147.847 144.445 C 145.013 144.625,142.595 144.872,142.474 144.992 C 142.211 145.256,150.811 144.821,154.200 144.400 C 157.535 143.985,154.745 144.005,147.847 144.445 M96.300 145.500 C 104.715 145.560,118.485 145.560,126.900 145.500 C 135.315 145.440,128.430 145.390,111.600 145.390 C 94.770 145.390,87.885 145.440,96.300 145.500 M200.100 146.676 C 200.485 146.776,201.115 146.776,201.500 146.676 C 201.885 146.575,201.570 146.493,200.800 146.493 C 200.030 146.493,199.715 146.575,200.100 146.676 M180.600 148.000 C 178.273 148.417,180.740 148.433,183.400 148.018 C 185.299 147.723,185.319 147.707,183.800 147.710 C 182.920 147.712,181.480 147.842,180.600 148.000 M185.920 148.080 C 186.184 148.344,186.425 149.199,186.454 149.980 C 186.493 150.989,186.561 151.128,186.688 150.459 C 186.928 149.194,186.496 147.600,185.912 147.600 C 185.553 147.600,185.555 147.715,185.920 148.080 M169.800 148.800 L 168.200 149.086 169.600 149.114 C 170.370 149.129,171.810 148.997,172.800 148.820 L 174.600 148.500 173.000 148.507 C 172.120 148.511,170.680 148.642,169.800 148.800 M159.000 149.600 C 157.080 149.863,157.064 149.876,158.600 149.908 C 159.480 149.926,161.010 149.797,162.000 149.620 C 164.370 149.199,162.041 149.183,159.000 149.600 M147.800 150.400 L 145.400 150.666 147.400 150.698 C 148.500 150.715,150.300 150.590,151.400 150.418 C 154.047 150.006,151.479 149.993,147.800 150.400 M94.929 151.100 C 102.590 151.161,115.010 151.161,122.529 151.100 C 130.048 151.039,123.780 150.989,108.600 150.989 C 93.420 150.989,87.268 151.039,94.929 151.100 M186.868 154.000 C 186.888 155.039,187.518 156.746,187.532 155.800 C 187.538 155.360,187.389 154.640,187.200 154.200 C 186.989 153.710,186.861 153.632,186.868 154.000 M272.981 156.100 L 271.400 157.800 273.100 156.219 C 274.681 154.748,274.984 154.400,274.681 154.400 C 274.616 154.400,273.851 155.165,272.981 156.100 M222.958 165.000 C 222.958 168.080,223.021 169.287,223.097 167.682 C 223.173 166.078,223.173 163.558,223.096 162.082 C 223.019 160.607,222.957 161.920,222.958 165.000 M260.386 168.700 L 258.200 171.000 260.500 168.814 C 261.765 167.611,262.800 166.576,262.800 166.514 C 262.800 166.217,262.418 166.563,260.386 168.700 M191.885 169.900 C 192.267 170.928,193.615 173.338,194.066 173.800 C 194.281 174.020,193.883 173.075,193.182 171.700 C 191.954 169.291,191.344 168.444,191.885 169.900 M195.429 176.200 C 196.541 178.132,199.373 181.953,199.711 181.977 C 199.882 181.990,199.162 180.872,198.111 179.493 C 197.060 178.115,195.871 176.540,195.470 175.993 C 194.747 175.012,194.747 175.014,195.429 176.200 M250.800 178.200 C 249.828 179.190,249.123 180.000,249.233 180.000 C 249.343 180.000,250.228 179.190,251.200 178.200 C 252.172 177.210,252.877 176.400,252.767 176.400 C 252.657 176.400,251.772 177.210,250.800 178.200 M241.769 188.400 C 241.769 192.910,241.827 194.755,241.898 192.500 C 241.970 190.245,241.970 186.555,241.898 184.300 C 241.827 182.045,241.769 183.890,241.769 188.400 M203.200 185.723 C 206.699 189.348,215.200 195.986,215.200 195.092 C 215.200 194.990,214.435 194.409,213.500 193.802 C 211.994 192.823,207.756 189.735,207.186 189.201 C 207.068 189.090,205.358 187.470,203.386 185.600 L 199.800 182.200 203.200 185.723 M308.426 192.922 L 307.451 194.200 308.726 193.025 L 310.000 191.850 310.001 203.625 C 310.003 216.271,310.287 218.050,312.294 217.973 C 312.883 217.950,312.859 217.877,312.146 217.532 C 310.531 216.750,310.400 215.690,310.400 203.381 C 310.400 190.679,310.348 190.402,308.426 192.922 M304.994 196.128 C 303.891 197.048,302.541 198.119,301.994 198.509 L 301.000 199.218 302.200 198.637 C 303.279 198.115,307.686 194.421,307.200 194.446 C 307.090 194.452,306.097 195.209,304.994 196.128 M216.000 195.620 C 217.387 196.561,218.178 196.835,217.200 196.036 C 216.650 195.586,216.020 195.217,215.800 195.215 C 215.580 195.213,215.670 195.396,216.000 195.620 M142.131 201.800 C 142.133 203.340,142.205 203.921,142.292 203.091 C 142.379 202.261,142.377 201.001,142.289 200.291 C 142.200 199.581,142.129 200.260,142.131 201.800 M229.200 201.182 C 229.530 201.405,230.145 201.591,230.567 201.594 C 231.590 201.602,231.271 201.373,229.800 201.044 C 228.924 200.848,228.762 200.885,229.200 201.182 M294.800 201.652 C 293.503 202.106,293.116 202.343,293.857 202.229 C 295.092 202.041,298.184 200.857,297.400 200.874 C 297.180 200.878,296.010 201.229,294.800 201.652 M233.700 202.276 C 234.085 202.376,234.715 202.376,235.100 202.276 C 235.485 202.175,235.170 202.093,234.400 202.093 C 233.630 202.093,233.315 202.175,233.700 202.276 M237.200 202.820 C 238.152 203.106,244.635 203.284,243.800 203.001 C 243.580 202.927,241.780 202.788,239.800 202.692 C 237.820 202.597,236.650 202.654,237.200 202.820 M268.000 202.800 L 245.000 203.010 268.000 203.077 C 280.650 203.114,291.360 202.989,291.800 202.800 L 292.600 202.456 291.800 202.523 C 291.360 202.560,280.650 202.685,268.000 202.800 M141.443 205.433 C 141.309 205.781,141.194 206.366,141.187 206.733 C 141.181 207.100,140.644 208.468,139.995 209.774 C 139.346 211.080,138.879 212.213,138.958 212.291 C 139.203 212.537,141.479 207.465,141.736 206.100 C 141.995 204.720,141.846 204.381,141.443 205.433 M130.581 213.700 L 129.000 215.400 130.700 213.819 C 132.281 212.348,132.584 212.000,132.281 212.000 C 132.216 212.000,131.451 212.765,130.581 213.700 M137.599 214.100 C 137.010 214.904,136.913 215.184,137.345 214.833 C 138.001 214.300,138.993 212.800,138.689 212.800 C 138.613 212.800,138.122 213.385,137.599 214.100 M134.000 218.091 C 132.570 219.441,131.940 220.168,132.600 219.706 C 133.761 218.894,137.148 215.582,136.781 215.618 C 136.682 215.627,135.430 216.740,134.000 218.091 M224.695 241.109 C 203.542 262.275,202.636 263.290,203.566 264.759 C 203.807 265.140,203.920 264.831,203.920 263.792 C 203.920 262.310,204.530 261.657,225.275 240.933 C 237.020 229.200,246.531 219.600,246.410 219.600 C 246.289 219.600,236.517 229.279,224.695 241.109 M249.057 220.270 C 251.713 222.530,252.530 221.525,228.549 245.487 C 217.037 256.989,207.752 266.400,207.915 266.400 C 208.700 266.400,250.370 224.124,250.628 223.065 C 250.923 221.855,249.902 219.999,248.776 219.696 C 248.459 219.611,248.586 219.869,249.057 220.270 M293.382 220.420 C 291.376 222.636,291.698 223.096,303.520 234.918 C 309.504 240.902,314.400 245.653,314.400 245.476 C 314.400 245.299,309.715 240.483,303.989 234.773 C 292.216 223.035,291.363 221.740,294.278 220.044 C 294.675 219.813,294.803 219.619,294.562 219.612 C 294.321 219.605,293.790 219.969,293.382 220.420 M305.076 228.100 C 310.588 233.578,313.943 236.623,314.514 236.666 C 315.298 236.723,315.305 236.710,314.579 236.548 C 314.127 236.447,309.989 232.593,305.383 227.983 C 300.776 223.372,296.898 219.600,296.765 219.600 C 296.632 219.600,300.372 223.425,305.076 228.100 M128.465 221.992 C 126.802 222.920,126.507 223.202,127.460 222.951 C 128.137 222.774,130.462 221.199,130.000 221.232 C 129.890 221.240,129.199 221.581,128.465 221.992 M270.800 221.488 C 269.930 221.802,268.800 222.855,268.800 223.351 C 268.800 223.586,269.080 223.378,269.423 222.889 C 270.196 221.784,272.807 221.644,273.651 222.661 C 274.107 223.211,274.200 229.196,274.200 258.000 C 274.200 295.888,274.345 293.642,271.850 294.366 C 270.891 294.644,270.804 294.736,271.478 294.764 C 271.960 294.784,272.860 294.366,273.478 293.835 L 274.600 292.869 274.600 258.046 C 274.600 223.745,274.588 223.211,273.800 222.453 C 272.878 221.566,271.664 221.176,270.800 221.488 M124.800 223.600 C 124.470 223.813,123.750 224.015,123.200 224.048 C 122.381 224.098,122.348 224.138,123.015 224.271 C 123.463 224.360,124.453 224.163,125.215 223.832 C 125.977 223.502,126.330 223.227,126.000 223.222 C 125.670 223.217,125.130 223.387,124.800 223.600 M268.591 258.000 C 268.591 276.810,268.640 284.505,268.700 275.100 C 268.760 265.695,268.760 250.305,268.700 240.900 C 268.640 231.495,268.591 239.190,268.591 258.000 M118.000 225.221 C 117.570 225.514,117.854 225.554,119.000 225.362 C 120.984 225.030,121.304 224.798,119.767 224.806 C 119.125 224.809,118.330 224.996,118.000 225.221 M114.200 226.010 C 113.666 226.247,113.998 226.286,115.200 226.127 C 116.190 225.996,117.075 225.824,117.167 225.744 C 117.514 225.443,114.964 225.672,114.200 226.010 M110.400 226.821 C 109.970 227.114,110.254 227.154,111.400 226.962 C 113.384 226.630,113.704 226.398,112.167 226.406 C 111.525 226.409,110.730 226.596,110.400 226.821 M106.600 227.619 C 106.042 227.871,106.285 227.907,107.400 227.738 C 108.280 227.604,109.075 227.428,109.167 227.347 C 109.510 227.044,107.368 227.271,106.600 227.619 M102.800 228.400 C 102.036 228.894,102.858 228.894,104.400 228.400 L 105.400 228.080 104.400 228.046 C 103.850 228.027,103.130 228.187,102.800 228.400 M99.000 229.200 L 98.200 229.544 99.000 229.532 C 99.440 229.526,100.250 229.376,100.800 229.200 L 101.800 228.880 100.800 228.868 C 100.250 228.862,99.440 229.011,99.000 229.200 M95.000 230.000 L 94.200 230.344 95.000 230.332 C 95.440 230.326,96.250 230.176,96.800 230.000 L 97.800 229.680 96.800 229.668 C 96.250 229.662,95.440 229.811,95.000 230.000 M91.400 230.800 L 90.600 231.144 91.400 231.144 C 91.840 231.144,92.560 230.989,93.000 230.800 L 93.800 230.456 93.000 230.456 C 92.560 230.456,91.840 230.611,91.400 230.800 M87.000 231.600 C 86.271 231.913,86.288 231.944,87.200 231.944 C 87.750 231.944,88.560 231.789,89.000 231.600 C 89.729 231.287,89.712 231.256,88.800 231.256 C 88.250 231.256,87.440 231.411,87.000 231.600 M80.998 232.403 C 80.784 232.749,84.734 232.599,85.086 232.247 C 85.216 232.118,84.390 232.033,83.252 232.058 C 82.114 232.084,81.099 232.239,80.998 232.403 M312.121 258.405 C 310.097 259.220,310.000 260.020,309.998 275.880 C 309.997 283.976,309.835 291.230,309.638 292.000 C 309.080 294.181,308.768 296.165,309.023 295.911 C 310.030 294.903,310.400 289.468,310.400 275.680 C 310.400 259.217,310.429 259.032,313.101 258.585 C 315.239 258.228,315.580 258.064,314.200 258.057 C 313.540 258.054,312.604 258.210,312.121 258.405 M307.113 300.581 C 306.742 301.581,306.517 302.400,306.614 302.400 C 306.893 302.400,308.031 299.494,307.903 299.109 C 307.839 298.918,307.484 299.580,307.113 300.581 M304.770 305.266 C 304.498 305.780,304.013 306.605,303.692 307.100 C 303.371 307.595,303.195 308.000,303.301 308.000 C 303.636 308.000,305.669 304.736,305.462 304.529 C 305.354 304.420,305.042 304.752,304.770 305.266 M300.993 310.700 C 299.915 311.965,298.305 313.656,297.416 314.457 C 296.527 315.259,295.260 316.400,294.600 316.994 L 293.400 318.073 294.800 317.145 C 296.415 316.075,301.092 311.436,302.379 309.629 C 303.744 307.713,303.142 308.177,300.993 310.700 M310.582 332.000 C 310.582 340.470,310.635 343.935,310.699 339.700 C 310.764 335.465,310.764 328.535,310.699 324.300 C 310.635 320.065,310.582 323.530,310.582 332.000 M288.400 320.800 C 287.190 321.439,286.402 321.971,286.650 321.981 C 287.131 322.001,290.800 320.043,290.800 319.766 C 290.800 319.530,290.823 319.520,288.400 320.800 M279.800 324.000 C 278.693 324.282,278.677 324.309,279.600 324.347 C 280.150 324.369,280.870 324.213,281.200 324.000 C 281.881 323.560,281.529 323.560,279.800 324.000 M273.907 325.090 C 274.626 325.179,275.706 325.177,276.307 325.086 C 276.908 324.995,276.320 324.922,275.000 324.924 C 273.680 324.926,273.188 325.001,273.907 325.090 M81.862 325.500 C 81.694 325.771,121.570 325.770,177.200 325.496 C 188.750 325.439,172.066 325.349,140.124 325.296 C 108.182 325.243,81.964 325.335,81.862 325.500 M217.530 325.500 C 227.502 325.559,243.702 325.559,253.530 325.500 C 263.359 325.440,255.200 325.392,235.400 325.392 C 215.600 325.392,207.559 325.440,217.530 325.500 M272.105 331.087 C 272.714 331.179,273.614 331.177,274.105 331.082 C 274.597 330.987,274.100 330.911,273.000 330.914 C 271.900 330.917,271.497 330.995,272.105 331.087 M201.369 339.600 C 201.369 344.110,201.427 345.955,201.498 343.700 C 201.570 341.445,201.570 337.755,201.498 335.500 C 201.427 333.245,201.369 335.090,201.369 339.600 "
              stroke="none" fill="#647c44" fill-rule="evenodd"></path>
        <path id="path8"
              d="M284.325 96.600 C 284.772 97.480,285.433 98.560,285.794 99.000 C 286.155 99.440,285.959 98.900,285.359 97.800 C 284.016 95.338,283.207 94.399,284.325 96.600 M286.415 100.200 C 286.417 100.420,286.786 101.050,287.236 101.600 C 287.779 102.264,287.915 102.331,287.640 101.800 C 286.966 100.495,286.412 99.772,286.415 100.200 M288.015 103.000 C 288.017 103.220,288.386 103.850,288.836 104.400 C 289.379 105.064,289.515 105.131,289.240 104.600 C 288.566 103.295,288.012 102.572,288.015 103.000 M302.006 126.450 C 301.997 126.805,304.033 130.400,304.242 130.400 C 304.338 130.400,304.060 129.725,303.624 128.900 C 302.678 127.111,302.015 126.106,302.006 126.450 M289.113 133.895 C 290.276 133.976,292.076 133.976,293.113 133.893 C 294.151 133.811,293.200 133.745,291.000 133.746 C 288.800 133.747,287.951 133.814,289.113 133.895 M281.900 134.293 C 282.835 134.377,284.365 134.377,285.300 134.293 C 286.235 134.209,285.470 134.140,283.600 134.140 C 281.730 134.140,280.965 134.209,281.900 134.293 M295.233 134.143 C 295.325 134.222,296.120 134.397,297.000 134.532 C 298.090 134.699,298.409 134.655,298.000 134.395 C 297.453 134.046,294.845 133.809,295.233 134.143 M277.500 134.682 C 277.995 134.778,278.805 134.778,279.300 134.682 C 279.795 134.587,279.390 134.509,278.400 134.509 C 277.410 134.509,277.005 134.587,277.500 134.682 M271.100 135.093 C 272.035 135.177,273.565 135.177,274.500 135.093 C 275.435 135.009,274.670 134.940,272.800 134.940 C 270.930 134.940,270.165 135.009,271.100 135.093 M298.833 134.935 C 299.219 135.247,302.400 136.377,302.400 136.202 C 302.400 135.963,299.651 134.800,299.084 134.800 C 298.855 134.800,298.742 134.861,298.833 134.935 M267.105 135.483 C 267.602 135.579,268.322 135.575,268.705 135.475 C 269.087 135.375,268.680 135.296,267.800 135.301 C 266.920 135.305,266.607 135.387,267.105 135.483 M260.300 135.893 C 261.235 135.977,262.765 135.977,263.700 135.893 C 264.635 135.809,263.870 135.740,262.000 135.740 C 260.130 135.740,259.365 135.809,260.300 135.893 M256.305 136.283 C 256.802 136.379,257.522 136.375,257.905 136.275 C 258.287 136.175,257.880 136.096,257.000 136.101 C 256.120 136.105,255.807 136.187,256.305 136.283 M246.800 136.791 C 246.030 136.949,247.380 136.990,249.800 136.884 C 252.220 136.777,254.275 136.625,254.367 136.545 C 254.663 136.287,248.245 136.496,246.800 136.791 M236.000 137.591 C 235.230 137.749,236.580 137.790,239.000 137.684 C 241.420 137.577,243.475 137.425,243.567 137.345 C 243.863 137.087,237.445 137.296,236.000 137.591 M225.200 138.404 C 224.430 138.569,225.690 138.610,228.000 138.496 C 230.310 138.382,232.275 138.224,232.367 138.144 C 232.671 137.881,226.625 138.100,225.200 138.404 M214.800 139.201 C 214.238 139.382,215.463 139.428,217.600 139.306 C 219.690 139.186,221.475 139.024,221.567 138.944 C 221.900 138.656,215.772 138.889,214.800 139.201 M204.000 140.005 C 203.426 140.192,204.532 140.236,206.600 140.110 C 208.580 139.988,210.275 139.824,210.367 139.744 C 210.701 139.455,204.971 139.689,204.000 140.005 M193.400 140.805 C 192.728 140.979,193.784 141.021,195.800 140.902 C 197.780 140.785,199.475 140.624,199.567 140.544 C 199.881 140.272,194.600 140.495,193.400 140.805 M182.800 141.621 C 182.169 141.837,182.832 141.878,184.600 141.732 C 186.140 141.605,187.475 141.434,187.567 141.351 C 187.896 141.053,183.779 141.287,182.800 141.621 M172.200 142.413 C 171.490 142.601,172.306 142.641,174.200 142.512 C 175.960 142.391,177.475 142.226,177.567 142.146 C 177.880 141.871,173.403 142.094,172.200 142.413 M161.800 143.213 C 161.090 143.401,161.906 143.441,163.800 143.312 C 165.560 143.191,167.075 143.026,167.167 142.946 C 167.480 142.671,163.003 142.894,161.800 143.213 M150.800 144.017 C 150.185 144.225,150.954 144.266,152.800 144.125 C 154.450 143.999,155.875 143.829,155.967 143.748 C 156.299 143.453,151.774 143.689,150.800 144.017 M111.800 144.800 L 82.200 145.008 111.800 145.069 C 128.080 145.102,142.300 144.990,143.400 144.818 L 145.400 144.507 143.400 144.550 C 142.300 144.573,128.080 144.686,111.800 144.800 M177.511 148.693 C 178.451 148.778,179.891 148.777,180.711 148.691 C 181.530 148.605,180.760 148.536,179.000 148.537 C 177.240 148.539,176.570 148.609,177.511 148.693 M166.711 149.493 C 167.651 149.578,169.091 149.577,169.911 149.491 C 170.730 149.405,169.960 149.336,168.200 149.337 C 166.440 149.339,165.770 149.409,166.711 149.493 M155.911 150.293 C 156.851 150.378,158.291 150.377,159.111 150.291 C 159.930 150.205,159.160 150.136,157.400 150.137 C 155.640 150.139,154.970 150.209,155.911 150.293 M151.700 150.676 C 152.085 150.776,152.715 150.776,153.100 150.676 C 153.485 150.575,153.170 150.493,152.400 150.493 C 151.630 150.493,151.315 150.575,151.700 150.676 M145.091 151.089 C 145.801 151.177,147.061 151.179,147.891 151.092 C 148.721 151.005,148.140 150.933,146.600 150.931 C 145.060 150.929,144.381 151.000,145.091 151.089 M142.988 176.200 C 142.988 189.840,143.038 195.478,143.100 188.729 C 143.161 181.980,143.161 170.820,143.100 163.929 C 143.038 157.038,142.988 162.560,142.988 176.200 M186.501 153.400 C 186.505 154.280,186.587 154.593,186.683 154.095 C 186.779 153.598,186.775 152.878,186.675 152.495 C 186.575 152.113,186.496 152.520,186.501 153.400 M187.200 157.776 C 187.200 158.313,187.347 158.844,187.528 158.955 C 187.708 159.067,187.777 158.627,187.682 157.979 C 187.472 156.549,187.200 156.435,187.200 157.776 M200.783 183.700 C 201.764 184.745,202.619 185.600,202.683 185.600 C 202.984 185.600,202.666 185.241,200.900 183.583 L 199.000 181.800 200.783 183.700 M204.000 186.925 C 204.000 186.994,204.585 187.579,205.300 188.225 L 206.600 189.400 205.425 188.100 C 204.330 186.888,204.000 186.616,204.000 186.925 M308.800 193.000 C 308.283 193.550,308.027 193.994,308.230 193.987 C 308.572 193.976,310.221 192.000,309.888 192.000 C 309.806 192.000,309.317 192.450,308.800 193.000 M304.869 196.755 C 303.916 197.591,301.801 198.963,300.169 199.803 C 297.123 201.370,296.408 201.881,298.234 201.187 C 300.953 200.153,308.241 195.149,306.929 195.217 C 306.748 195.226,305.821 195.918,304.869 196.755 M292.000 202.800 C 291.196 203.057,291.157 203.123,291.800 203.132 C 292.240 203.138,292.960 202.989,293.400 202.800 C 294.419 202.362,293.368 202.362,292.000 202.800 M241.705 203.487 C 242.314 203.579,243.214 203.577,243.705 203.482 C 244.197 203.387,243.700 203.311,242.600 203.314 C 241.500 203.317,241.097 203.395,241.705 203.487 M245.062 203.500 C 244.893 203.772,261.544 203.768,281.600 203.490 C 285.890 203.431,279.466 203.341,267.324 203.291 C 255.182 203.241,245.164 203.335,245.062 203.500 M224.799 240.700 L 203.400 262.200 224.801 240.900 C 248.516 217.298,247.790 217.882,249.971 220.654 C 250.427 221.234,250.800 221.535,250.800 221.324 C 250.800 220.448,248.904 219.200,247.573 219.200 C 246.288 219.200,244.788 220.616,224.799 240.700 M293.429 219.809 C 293.005 220.129,292.755 220.488,292.872 220.606 C 292.990 220.723,293.314 220.545,293.592 220.210 C 295.209 218.261,296.469 219.082,305.391 227.900 C 310.011 232.465,312.802 235.132,311.595 233.827 C 300.102 221.399,295.758 218.047,293.429 219.809 M270.636 221.142 C 270.520 221.330,270.941 221.465,271.573 221.442 C 272.205 221.419,272.638 221.265,272.537 221.100 C 272.285 220.690,270.896 220.720,270.636 221.142 M292.267 221.467 C 291.889 221.844,291.935 223.513,292.329 223.756 C 292.510 223.868,292.645 223.339,292.629 222.581 C 292.613 221.823,292.585 221.202,292.567 221.201 C 292.548 221.201,292.413 221.320,292.267 221.467 M274.600 258.000 C 274.600 277.098,274.735 292.640,274.900 292.538 C 275.065 292.436,275.200 276.894,275.200 258.000 C 275.200 239.106,275.065 223.564,274.900 223.462 C 274.735 223.360,274.600 238.902,274.600 258.000 M229.423 245.085 C 207.015 267.607,207.195 267.453,204.703 266.214 C 203.456 265.593,203.431 265.596,204.105 266.274 C 206.462 268.640,205.897 269.102,229.492 245.507 C 241.303 233.696,250.884 223.980,250.783 223.916 C 250.682 223.852,241.070 233.378,229.423 245.085 M268.191 258.000 C 268.191 276.590,268.240 284.195,268.300 274.900 C 268.360 265.605,268.360 250.395,268.300 241.100 C 268.240 231.805,268.191 239.410,268.191 258.000 M303.200 235.000 C 309.027 240.830,313.884 245.600,313.994 245.600 C 314.104 245.600,309.427 240.830,303.600 235.000 C 297.773 229.170,292.916 224.400,292.806 224.400 C 292.696 224.400,297.373 229.170,303.200 235.000 M118.000 225.600 L 117.000 225.920 118.076 225.960 C 118.668 225.982,119.264 225.820,119.400 225.600 C 119.681 225.145,119.420 225.145,118.000 225.600 M114.200 226.400 C 113.093 226.682,113.077 226.709,114.000 226.747 C 114.550 226.769,115.270 226.613,115.600 226.400 C 116.281 225.960,115.929 225.960,114.200 226.400 M110.400 227.200 L 109.400 227.520 110.400 227.554 C 110.950 227.573,111.670 227.413,112.000 227.200 C 112.764 226.706,111.942 226.706,110.400 227.200 M106.600 228.000 C 105.493 228.282,105.477 228.309,106.400 228.347 C 106.950 228.369,107.670 228.213,108.000 228.000 C 108.681 227.560,108.329 227.560,106.600 228.000 M102.600 228.800 L 101.400 229.105 102.600 229.147 C 103.260 229.169,104.070 229.013,104.400 228.800 C 105.143 228.320,104.487 228.320,102.600 228.800 M99.000 229.600 C 97.893 229.882,97.877 229.909,98.800 229.947 C 99.350 229.969,100.070 229.813,100.400 229.600 C 101.081 229.160,100.729 229.160,99.000 229.600 M95.000 230.400 L 93.800 230.705 95.000 230.747 C 95.660 230.769,96.470 230.613,96.800 230.400 C 97.543 229.920,96.887 229.920,95.000 230.400 M91.200 231.200 C 89.833 231.488,89.828 231.495,91.000 231.519 C 91.660 231.533,92.560 231.389,93.000 231.200 C 93.962 230.787,93.164 230.787,91.200 231.200 M86.100 232.276 C 86.485 232.376,87.115 232.376,87.500 232.276 C 87.885 232.175,87.570 232.093,86.800 232.093 C 86.030 232.093,85.715 232.175,86.100 232.276 M312.190 258.016 C 312.021 258.289,312.323 258.338,313.066 258.160 C 314.599 257.792,314.744 257.600,313.490 257.600 C 312.917 257.600,312.332 257.787,312.190 258.016 M310.598 259.202 C 310.198 259.644,309.966 260.099,310.082 260.215 C 310.197 260.330,310.590 259.969,310.955 259.412 C 311.752 258.196,311.593 258.102,310.598 259.202 M202.936 263.022 C 202.805 263.364,202.871 264.032,203.082 264.507 C 203.411 265.244,203.462 265.154,203.434 263.886 C 203.397 262.258,203.296 262.083,202.936 263.022 M309.449 290.215 C 309.312 290.573,309.218 291.346,309.240 291.933 C 309.273 292.791,309.352 292.695,309.646 291.440 C 310.022 289.839,309.895 289.053,309.449 290.215 M268.425 292.430 C 268.399 293.087,269.982 294.800,270.615 294.800 C 270.815 294.800,270.565 294.511,270.060 294.157 C 269.556 293.804,268.987 293.129,268.797 292.657 C 268.566 292.085,268.442 292.009,268.425 292.430 M273.256 294.034 C 272.736 294.455,272.466 294.794,272.656 294.787 C 273.144 294.769,274.576 293.643,274.371 293.439 C 274.277 293.345,273.775 293.613,273.256 294.034 M303.273 307.000 C 303.022 307.550,302.883 308.000,302.963 308.000 C 303.043 308.000,303.403 307.550,303.763 307.000 C 304.124 306.450,304.263 306.000,304.073 306.000 C 303.884 306.000,303.523 306.450,303.273 307.000 M302.000 308.732 C 302.000 309.439,296.666 314.904,294.083 316.844 C 291.230 318.986,290.749 319.427,291.930 318.819 C 294.950 317.263,302.973 309.240,302.241 308.507 C 302.108 308.375,302.000 308.476,302.000 308.732 M289.500 319.829 C 288.005 320.640,288.096 320.978,289.600 320.200 C 290.260 319.859,290.800 319.494,290.800 319.390 C 290.800 319.132,290.757 319.147,289.500 319.829 M276.400 324.406 C 275.978 324.682,276.215 324.723,277.200 324.542 C 278.925 324.225,279.251 323.998,277.967 324.006 C 277.435 324.009,276.730 324.189,276.400 324.406 M110.900 325.100 C 126.905 325.158,153.095 325.158,169.100 325.100 C 185.105 325.042,172.010 324.995,140.000 324.995 C 107.990 324.995,94.895 325.042,110.900 325.100 M217.500 325.100 C 227.455 325.159,243.745 325.159,253.700 325.100 C 263.655 325.040,255.510 324.992,235.600 324.992 C 215.690 324.992,207.545 325.040,217.500 325.100 "
              stroke="none" fill="#74a45c" fill-rule="evenodd"></path>
    </g>
</svg>