<svg id="svg" version="1.1" xmlns="http://www.w3.org/2000/svg" xmlns:xlink="http://www.w3.org/1999/xlink" width="400" height="400" viewBox="0, 0, 400,400"><g id="svgg"><path id="path0" d="M193.600 31.171 L 193.600 43.942 191.300 44.184 C 184.044 44.945,171.747 47.898,168.705 49.609 C 168.323 49.824,167.823 50.000,167.594 50.000 C 166.007 50.000,154.550 56.271,149.480 59.915 L 146.360 62.157 171.479 87.279 L 196.598 112.400 199.599 112.406 C 213.213 112.433,217.892 130.639,205.752 136.351 C 205.119 136.649,204.287 137.052,203.905 137.247 C 203.523 137.441,201.839 137.600,200.163 137.600 C 192.711 137.600,187.487 132.395,187.405 124.885 L 187.368 121.570 161.984 96.181 C 140.161 74.354,136.533 70.883,136.124 71.439 C 135.863 71.795,135.045 72.742,134.306 73.543 C 128.674 79.655,121.828 90.744,118.836 98.600 C 118.333 99.920,117.771 101.360,117.587 101.800 C 117.402 102.240,116.861 103.950,116.384 105.600 C 115.907 107.250,115.372 109.050,115.195 109.600 C 115.018 110.150,114.663 111.770,114.406 113.200 C 114.150 114.630,113.783 116.610,113.591 117.600 C 113.400 118.590,113.129 120.615,112.990 122.100 L 112.736 124.800 101.218 124.800 C 94.883 124.800,89.138 124.912,88.450 125.050 L 87.200 125.300 87.200 131.450 L 87.200 137.600 99.953 137.600 L 112.707 137.600 112.971 140.300 C 113.851 149.280,116.425 158.784,120.231 167.105 C 120.764 168.270,121.200 169.286,121.200 169.363 C 121.200 170.590,130.322 184.757,132.574 187.029 C 132.809 187.265,133.699 188.295,134.553 189.318 C 135.597 190.567,136.975 191.592,138.753 192.443 C 141.761 193.882,146.210 195.935,147.400 196.432 C 147.840 196.616,149.640 197.422,151.400 198.223 C 153.160 199.023,155.410 200.001,156.400 200.396 C 157.390 200.791,159.550 201.749,161.200 202.525 C 168.309 205.868,168.759 205.994,171.410 205.385 C 172.725 205.083,174.430 204.750,175.200 204.646 C 177.233 204.370,188.498 201.986,188.879 201.751 C 189.057 201.641,190.057 201.401,191.101 201.216 C 194.386 200.636,197.772 199.964,198.533 199.740 C 199.117 199.569,198.102 198.353,193.533 193.749 C 190.380 190.572,187.733 187.776,187.650 187.537 C 187.568 187.297,208.248 166.352,233.607 140.993 L 279.714 94.885 277.474 90.652 C 268.007 72.765,249.921 56.244,233.400 50.390 C 232.960 50.235,232.150 49.925,231.600 49.703 C 231.050 49.481,230.114 49.105,229.519 48.867 C 225.457 47.242,214.627 44.805,208.700 44.184 L 206.400 43.942 206.400 31.171 L 206.400 18.400 200.000 18.400 L 193.600 18.400 193.600 31.171 M159.600 25.200 C 159.115 25.514,159.172 25.589,159.900 25.594 C 160.395 25.597,160.800 25.420,160.800 25.200 C 160.800 24.699,160.376 24.699,159.600 25.200 M115.381 30.303 C 116.251 31.236,117.119 32.000,117.310 32.000 C 117.671 32.000,117.471 31.794,115.179 29.803 C 113.919 28.708,113.936 28.751,115.381 30.303 M142.856 33.213 C 141.629 34.235,142.292 34.223,143.600 33.200 C 144.150 32.770,144.420 32.420,144.200 32.422 C 143.980 32.425,143.375 32.781,142.856 33.213 M121.600 36.600 C 122.346 37.370,123.047 38.000,123.157 38.000 C 123.267 38.000,122.746 37.370,122.000 36.600 C 121.254 35.830,120.553 35.200,120.443 35.200 C 120.333 35.200,120.854 35.830,121.600 36.600 M271.229 43.100 C 271.245 43.265,271.920 43.930,272.729 44.579 L 274.200 45.757 272.822 44.279 C 271.397 42.751,271.180 42.590,271.229 43.100 M115.200 50.567 C 115.200 50.988,116.405 52.128,116.621 51.912 C 116.722 51.811,116.444 51.402,116.002 51.002 C 115.561 50.603,115.200 50.407,115.200 50.567 M284.000 55.429 C 284.000 55.727,285.075 56.800,285.375 56.800 C 285.502 56.800,285.382 56.440,285.107 56.000 C 284.638 55.249,284.000 54.920,284.000 55.429 M288.572 60.600 C 290.571 63.424,291.581 64.653,291.591 64.273 C 291.596 64.093,291.015 63.222,290.300 62.338 C 287.825 59.275,287.162 58.609,288.572 60.600 M109.475 62.722 C 108.339 63.907,108.141 64.400,108.800 64.400 C 109.020 64.400,109.200 64.187,109.200 63.926 C 109.200 63.665,109.591 63.035,110.070 62.526 C 110.548 62.017,110.852 61.600,110.745 61.600 C 110.637 61.600,110.066 62.105,109.475 62.722 M38.000 222.800 C 38.000 223.020,37.280 223.200,36.400 223.200 C 35.520 223.200,34.800 223.380,34.800 223.600 C 34.800 223.820,34.440 224.000,34.000 224.000 C 33.560 224.000,33.200 224.180,33.200 224.400 C 33.200 224.620,32.840 224.800,32.400 224.800 C 31.960 224.800,31.600 225.010,31.600 225.267 C 31.600 225.523,31.487 225.621,31.349 225.483 C 30.751 224.884,28.259 226.846,23.500 231.660 C 17.734 237.492,17.584 237.854,20.037 240.000 C 20.917 240.770,22.394 242.167,23.319 243.105 C 24.243 244.043,28.103 247.913,31.896 251.705 C 40.371 260.180,40.662 260.471,48.748 268.557 C 52.349 272.158,55.992 275.801,56.843 276.652 C 57.695 277.503,61.348 281.170,64.962 284.800 C 68.577 288.430,72.080 291.850,72.748 292.400 L 73.962 293.400 42.794 324.600 L 11.626 355.800 12.263 357.100 C 12.613 357.815,13.064 358.400,13.265 358.400 C 13.465 358.400,16.587 361.415,20.203 365.100 C 23.818 368.785,27.515 372.520,28.418 373.400 C 29.321 374.280,33.005 377.925,36.605 381.500 C 40.205 385.075,43.436 388.000,43.784 388.000 C 44.133 388.000,58.375 374.039,75.433 356.976 L 106.448 325.952 107.524 327.203 C 108.116 327.891,111.547 331.390,115.148 334.979 C 118.749 338.568,122.416 342.224,123.296 343.104 C 125.372 345.181,138.419 358.228,140.496 360.304 C 141.376 361.184,145.042 364.851,148.643 368.452 C 152.244 372.053,155.957 375.757,156.895 376.681 C 157.833 377.606,159.230 379.083,160.000 379.963 C 162.051 382.307,162.651 382.148,166.706 378.183 C 168.628 376.303,170.707 374.278,171.327 373.683 C 173.031 372.047,174.783 369.385,175.056 368.019 C 175.190 367.348,175.458 366.800,175.650 366.800 C 175.843 366.800,176.000 366.440,176.000 366.000 C 176.000 365.560,176.180 365.200,176.400 365.200 C 176.620 365.200,176.800 364.480,176.800 363.600 C 176.800 362.720,176.980 362.000,177.200 362.000 C 177.448 362.000,177.600 359.800,177.600 356.200 C 177.600 352.600,177.448 350.400,177.200 350.400 C 176.980 350.400,176.800 349.781,176.800 349.024 C 176.800 348.267,176.620 347.536,176.400 347.400 C 176.180 347.264,176.000 346.803,176.000 346.376 C 176.000 345.949,175.832 345.600,175.627 345.600 C 175.422 345.600,175.133 345.195,174.986 344.700 C 174.669 343.634,58.532 227.277,56.200 225.690 C 55.320 225.090,54.540 224.465,54.467 224.300 C 54.393 224.135,53.999 224.000,53.590 224.000 C 53.182 224.000,52.736 223.820,52.600 223.600 C 52.464 223.380,51.733 223.200,50.976 223.200 C 50.219 223.200,49.600 223.020,49.600 222.800 C 49.600 222.552,47.400 222.400,43.800 222.400 C 40.200 222.400,38.000 222.552,38.000 222.800 " stroke="none" fill="#5f696a" fill-rule="evenodd"></path><path id="path1" d="M187.435 18.698 C 187.271 18.862,185.936 19.129,184.468 19.291 C 178.921 19.903,177.789 20.088,177.420 20.439 C 177.211 20.637,176.266 20.800,175.320 20.800 C 174.374 20.800,173.600 20.980,173.600 21.200 C 173.600 21.420,172.981 21.600,172.224 21.600 C 171.467 21.600,170.736 21.780,170.600 22.000 C 170.464 22.220,169.924 22.400,169.400 22.400 C 168.876 22.400,168.336 22.580,168.200 22.800 C 168.064 23.020,167.333 23.200,166.576 23.200 C 165.819 23.200,165.200 23.380,165.200 23.600 C 165.200 23.820,164.761 24.000,164.224 24.000 C 163.687 24.000,163.136 24.180,163.000 24.400 C 162.864 24.620,162.313 24.800,161.776 24.800 C 161.239 24.800,160.800 24.980,160.800 25.200 C 160.800 25.420,160.361 25.600,159.824 25.600 C 159.287 25.600,158.736 25.780,158.600 26.000 C 158.464 26.220,158.003 26.400,157.576 26.400 C 157.149 26.400,156.800 26.591,156.800 26.824 C 156.800 27.057,156.624 27.138,156.408 27.005 C 156.193 26.872,155.608 26.988,155.108 27.262 C 154.609 27.537,153.981 27.798,153.714 27.843 C 153.180 27.933,148.720 30.079,148.400 30.401 C 148.290 30.511,147.660 30.865,147.000 31.188 C 146.340 31.511,145.048 32.276,144.128 32.888 C 143.208 33.499,142.173 34.000,141.828 34.000 C 141.483 34.000,141.200 34.180,141.200 34.400 C 141.200 34.620,140.964 34.800,140.675 34.800 C 140.387 34.800,139.764 35.160,139.292 35.600 C 138.820 36.040,138.291 36.400,138.117 36.401 C 137.943 36.401,137.170 36.941,136.400 37.600 C 135.630 38.259,134.815 38.799,134.588 38.799 C 134.362 38.800,133.917 39.160,133.600 39.600 C 133.283 40.040,132.873 40.400,132.690 40.400 C 132.507 40.400,131.781 40.939,131.078 41.598 C 130.375 42.257,129.594 42.797,129.343 42.798 C 127.383 42.806,128.664 44.462,137.361 53.159 L 146.359 62.157 147.880 61.039 C 153.083 57.212,160.082 53.157,165.200 51.004 C 166.630 50.403,168.160 49.758,168.600 49.572 C 173.674 47.425,184.183 44.930,191.300 44.184 L 193.600 43.942 193.600 31.171 L 193.600 18.400 190.667 18.400 C 189.053 18.400,187.599 18.534,187.435 18.698 M206.400 31.171 L 206.400 43.942 208.700 44.184 C 214.627 44.805,225.457 47.242,229.519 48.867 C 230.114 49.105,231.050 49.481,231.600 49.703 C 232.150 49.925,232.960 50.235,233.400 50.390 C 249.912 56.240,268.007 72.766,277.463 90.631 C 278.688 92.947,279.755 94.787,279.832 94.721 C 279.909 94.654,284.128 90.467,289.208 85.416 C 299.264 75.417,299.032 75.773,297.173 73.163 C 296.748 72.565,296.400 71.879,296.400 71.638 C 296.400 71.397,296.220 71.200,296.000 71.200 C 295.780 71.200,295.600 70.930,295.600 70.600 C 295.600 70.270,295.420 70.000,295.200 70.000 C 294.980 70.000,294.800 69.764,294.800 69.475 C 294.800 69.187,294.480 68.602,294.089 68.175 C 293.698 67.749,292.947 66.770,292.419 66.000 C 289.963 62.413,286.890 58.467,285.514 57.131 C 284.681 56.324,284.000 55.548,284.000 55.407 C 284.000 54.754,275.608 46.811,270.855 42.964 C 270.336 42.544,269.674 41.975,269.384 41.700 C 269.094 41.425,268.756 41.200,268.633 41.200 C 268.432 41.200,267.512 40.504,266.255 39.400 C 266.005 39.180,265.305 38.745,264.700 38.432 C 264.095 38.120,263.600 37.715,263.600 37.532 C 263.600 37.350,263.375 37.200,263.100 37.200 C 262.825 37.199,262.077 36.749,261.438 36.200 C 260.799 35.650,260.136 35.200,259.966 35.200 C 259.796 35.200,259.419 34.975,259.129 34.700 C 258.838 34.424,257.385 33.571,255.900 32.804 C 254.415 32.036,253.200 31.272,253.200 31.104 C 253.200 30.937,253.006 30.800,252.768 30.800 C 252.531 30.800,250.596 29.967,248.468 28.949 C 246.341 27.931,244.330 27.092,244.000 27.084 C 243.670 27.076,243.214 26.817,242.986 26.508 C 242.758 26.200,241.813 25.845,240.886 25.721 C 239.959 25.596,239.200 25.338,239.200 25.147 C 239.200 24.956,238.761 24.800,238.224 24.800 C 237.687 24.800,237.136 24.620,237.000 24.400 C 236.864 24.180,236.324 24.000,235.800 24.000 C 235.276 24.000,234.736 23.820,234.600 23.600 C 234.464 23.380,233.924 23.200,233.400 23.200 C 232.876 23.200,232.336 23.020,232.200 22.800 C 232.064 22.580,231.333 22.400,230.576 22.400 C 229.819 22.400,229.200 22.240,229.200 22.044 C 229.200 21.702,228.078 21.434,224.600 20.944 C 223.720 20.820,222.829 20.556,222.620 20.359 C 222.411 20.162,221.477 20.000,220.544 20.000 C 219.611 20.000,218.736 19.820,218.600 19.600 C 218.464 19.380,217.204 19.200,215.800 19.200 C 214.396 19.200,213.136 19.020,213.000 18.800 C 212.864 18.580,211.323 18.400,209.576 18.400 L 206.400 18.400 206.400 31.171 M116.846 54.406 C 116.101 55.063,115.625 55.600,115.788 55.600 C 115.951 55.600,115.563 56.095,114.925 56.700 C 113.635 57.924,109.200 63.422,109.200 63.797 C 109.200 63.929,108.750 64.486,108.200 65.036 C 107.650 65.586,107.200 66.180,107.200 66.356 C 107.200 66.532,106.750 67.199,106.200 67.838 C 105.651 68.477,105.201 69.225,105.200 69.500 C 105.200 69.775,105.050 70.000,104.868 70.000 C 104.685 70.000,104.280 70.495,103.968 71.100 C 103.656 71.705,103.311 72.290,103.201 72.400 C 103.090 72.510,102.581 73.410,102.068 74.400 C 100.580 77.274,99.416 79.384,99.199 79.600 C 98.975 79.824,98.484 80.854,97.200 83.800 C 95.720 87.195,95.415 87.790,95.001 88.094 C 94.780 88.256,94.727 88.391,94.882 88.394 C 95.037 88.397,94.724 89.570,94.186 91.000 C 93.647 92.430,93.317 93.600,93.452 93.600 C 93.587 93.600,93.489 93.852,93.234 94.159 C 92.777 94.710,92.519 95.526,92.113 97.705 C 92.000 98.313,91.749 98.908,91.554 99.029 C 91.359 99.149,91.200 99.766,91.200 100.400 C 91.200 101.034,91.020 101.664,90.800 101.800 C 90.580 101.936,90.400 102.656,90.400 103.400 C 90.400 104.144,90.220 104.864,90.000 105.000 C 89.780 105.136,89.600 105.957,89.600 106.824 C 89.600 107.691,89.437 108.400,89.237 108.400 C 88.895 108.400,88.694 109.703,88.158 115.400 C 88.034 116.720,87.768 117.971,87.566 118.180 C 87.365 118.389,87.200 120.076,87.200 121.930 L 87.200 125.300 88.450 125.050 C 89.138 124.913,94.883 124.800,101.218 124.800 L 112.736 124.800 112.990 122.100 C 113.129 120.615,113.400 118.590,113.591 117.600 C 113.783 116.610,114.150 114.630,114.406 113.200 C 114.663 111.770,115.018 110.150,115.195 109.600 C 115.372 109.050,115.907 107.250,116.384 105.600 C 116.861 103.950,117.402 102.240,117.587 101.800 C 117.771 101.360,118.333 99.920,118.836 98.600 C 121.848 90.692,128.695 79.621,134.382 73.465 C 135.162 72.621,135.956 71.653,136.147 71.316 C 136.499 70.694,119.543 53.192,118.603 53.206 C 118.382 53.210,117.591 53.750,116.846 54.406 M87.200 140.776 C 87.200 142.523,87.380 144.064,87.600 144.200 C 87.820 144.336,88.000 145.596,88.000 147.000 C 88.000 148.404,88.180 149.664,88.400 149.800 C 88.620 149.936,88.800 150.926,88.800 152.000 C 88.800 153.074,88.980 154.064,89.200 154.200 C 89.420 154.336,89.600 155.146,89.600 156.000 C 89.600 156.854,89.780 157.664,90.000 157.800 C 90.220 157.936,90.400 158.667,90.400 159.424 C 90.400 160.181,90.580 160.800,90.800 160.800 C 91.020 160.800,91.200 161.329,91.200 161.976 C 91.200 162.623,91.380 163.264,91.600 163.400 C 91.820 163.536,92.000 164.089,92.000 164.629 C 92.000 165.169,92.160 165.923,92.357 166.305 C 92.553 166.687,93.024 168.074,93.404 169.387 C 94.605 173.533,94.343 173.342,105.958 178.569 C 108.686 179.796,111.082 180.800,111.284 180.800 C 111.486 180.800,112.675 181.272,113.926 181.849 C 115.177 182.426,116.946 183.221,117.859 183.617 C 118.771 184.013,121.021 185.051,122.859 185.924 C 133.309 190.892,139.649 193.457,137.042 191.664 C 136.405 191.226,135.447 190.357,134.914 189.734 C 134.381 189.110,133.521 188.123,133.004 187.539 C 129.757 183.877,121.200 170.700,121.200 169.363 C 121.200 169.286,120.764 168.270,120.231 167.105 C 116.425 158.784,113.851 149.280,112.971 140.300 L 112.707 137.600 99.953 137.600 L 87.200 137.600 87.200 140.776 M148.683 197.403 C 149.157 197.735,150.952 198.613,152.672 199.354 C 154.393 200.095,156.861 201.191,158.158 201.789 C 160.891 203.049,163.600 204.044,163.600 203.786 C 163.600 203.595,159.344 201.596,156.400 200.406 C 155.410 200.006,153.204 199.031,151.498 198.239 C 148.171 196.695,147.306 196.438,148.683 197.403 M197.000 200.028 C 196.120 200.219,194.410 200.578,193.200 200.826 C 191.990 201.074,189.560 201.616,187.800 202.030 C 186.040 202.445,183.430 203.041,182.000 203.356 C 180.126 203.769,179.761 203.939,180.694 203.965 C 181.406 203.984,182.756 203.824,183.694 203.609 C 189.422 202.296,191.257 201.898,194.867 201.187 C 197.077 200.751,199.064 200.284,199.284 200.148 C 199.503 200.013,208.799 208.967,219.941 220.046 L 240.200 240.191 219.992 219.896 C 208.877 208.733,199.517 199.618,199.192 199.640 C 198.866 199.662,197.880 199.837,197.000 200.028 M172.200 205.200 C 171.111 205.477,171.093 205.507,172.000 205.525 C 172.550 205.535,173.360 205.389,173.800 205.200 C 174.786 204.776,173.866 204.776,172.200 205.200 M251.000 251.200 C 253.854 254.060,256.278 256.400,256.388 256.400 C 256.498 256.400,254.254 254.060,251.400 251.200 C 248.546 248.340,246.122 246.000,246.012 246.000 C 245.902 246.000,248.146 248.340,251.000 251.200 M267.400 267.600 C 270.254 270.460,272.678 272.800,272.788 272.800 C 272.898 272.800,270.654 270.460,267.800 267.600 C 264.946 264.740,262.522 262.400,262.412 262.400 C 262.302 262.400,264.546 264.740,267.400 267.600 M278.800 278.925 C 278.800 278.994,279.385 279.579,280.100 280.225 L 281.400 281.400 280.225 280.100 C 279.130 278.888,278.800 278.616,278.800 278.925 " stroke="none" fill="#8493a6" fill-rule="evenodd"></path><path id="path2" d="M38.600 100.000 C 38.464 100.220,37.834 100.400,37.200 100.400 C 36.566 100.400,35.936 100.580,35.800 100.800 C 35.664 101.020,35.203 101.200,34.776 101.200 C 34.349 101.200,34.000 101.380,34.000 101.600 C 34.000 101.820,33.640 102.000,33.200 102.000 C 32.760 102.000,32.400 102.180,32.400 102.400 C 32.400 102.620,32.164 102.800,31.875 102.800 C 31.587 102.800,30.964 103.160,30.492 103.600 C 30.020 104.040,29.491 104.401,29.317 104.402 C 28.842 104.405,26.400 106.780,26.400 107.239 C 26.400 107.458,27.165 108.449,28.100 109.441 C 35.506 117.299,35.944 117.609,37.400 116.000 C 37.798 115.560,38.366 115.200,38.662 115.200 C 38.958 115.200,39.200 115.020,39.200 114.800 C 39.200 114.580,39.560 114.400,40.000 114.400 C 40.440 114.400,40.800 114.220,40.800 114.000 C 40.800 113.780,41.574 113.600,42.520 113.600 C 43.466 113.600,44.456 113.384,44.720 113.120 C 45.093 112.747,45.200 112.747,45.200 113.120 C 45.200 113.422,45.867 113.600,47.000 113.600 C 47.990 113.600,48.800 113.780,48.800 114.000 C 48.800 114.220,49.160 114.400,49.600 114.400 C 50.040 114.400,50.400 114.580,50.400 114.800 C 50.400 115.020,50.670 115.200,51.000 115.200 C 51.330 115.200,51.600 115.380,51.600 115.600 C 51.600 115.820,51.870 116.000,52.200 116.000 C 52.530 116.000,52.800 116.180,52.800 116.400 C 52.800 117.702,54.794 116.368,58.584 112.532 C 63.237 107.822,63.601 106.982,61.700 105.347 C 61.095 104.827,60.457 104.401,60.283 104.400 C 60.109 104.400,59.619 104.076,59.193 103.679 C 58.091 102.653,55.261 101.200,54.362 101.200 C 53.943 101.200,53.600 101.020,53.600 100.800 C 53.600 100.580,53.071 100.400,52.424 100.400 C 51.777 100.400,51.136 100.220,51.000 100.000 C 50.853 99.762,48.337 99.600,44.800 99.600 C 41.263 99.600,38.747 99.762,38.600 100.000 M35.600 125.587 C 34.170 125.963,32.056 126.753,30.903 127.341 C 29.749 127.929,28.689 128.393,28.547 128.371 C 28.406 128.349,28.179 128.491,28.045 128.685 C 27.910 128.879,27.170 129.477,26.400 130.013 C 21.418 133.479,21.424 134.126,26.484 139.147 C 30.954 143.584,31.997 144.036,33.740 142.300 C 34.515 141.529,36.667 140.420,39.800 139.178 C 40.605 138.860,43.683 138.340,44.800 138.335 C 46.458 138.327,50.000 138.954,50.000 139.256 C 50.000 139.445,50.332 139.600,50.739 139.600 C 51.586 139.600,53.871 140.668,54.216 141.225 C 54.343 141.431,54.757 141.600,55.135 141.600 C 55.514 141.600,56.083 141.960,56.400 142.400 C 57.610 144.079,58.856 143.472,63.366 139.006 C 65.694 136.700,67.600 134.519,67.600 134.160 C 67.600 133.550,64.525 130.400,63.929 130.400 C 63.779 130.400,63.419 130.163,63.129 129.874 C 61.603 128.357,55.521 125.713,53.100 125.515 C 52.495 125.466,52.000 125.285,52.000 125.113 C 52.000 124.470,38.339 124.865,35.600 125.587 M55.564 158.565 C 55.434 158.698,54.444 158.881,53.364 158.972 C 50.530 159.212,41.762 162.918,41.267 164.086 C 41.193 164.259,40.788 164.400,40.367 164.400 C 39.945 164.400,39.600 164.580,39.600 164.800 C 39.600 165.020,39.240 165.200,38.800 165.200 C 38.360 165.200,38.000 165.337,38.000 165.505 C 38.000 165.673,37.607 165.988,37.126 166.205 C 36.645 166.422,36.195 166.780,36.126 167.000 C 36.057 167.220,81.437 212.838,136.972 268.372 L 237.944 369.344 239.573 367.872 C 240.469 367.062,241.105 366.400,240.987 366.400 C 240.869 366.400,242.585 364.600,244.800 362.400 C 247.015 360.200,249.002 358.400,249.214 358.400 C 249.426 358.400,249.600 358.130,249.600 357.800 C 249.600 357.470,249.747 357.200,249.926 357.200 C 250.351 357.200,257.200 350.351,257.200 349.926 C 257.200 349.747,257.470 349.600,257.800 349.600 C 258.130 349.600,258.400 349.426,258.400 349.214 C 258.400 349.002,260.200 347.015,262.400 344.800 C 264.600 342.585,266.400 340.868,266.400 340.984 C 266.400 341.101,267.840 339.646,269.600 337.751 C 271.360 335.856,272.800 334.123,272.800 333.900 C 272.800 333.676,273.116 333.203,273.503 332.847 C 273.889 332.491,274.460 331.705,274.770 331.100 C 275.081 330.495,275.485 330.000,275.668 330.000 C 275.850 330.000,276.000 329.640,276.000 329.200 C 276.000 328.760,276.180 328.400,276.400 328.400 C 276.620 328.400,276.800 328.040,276.800 327.600 C 276.800 327.160,276.980 326.800,277.200 326.800 C 277.420 326.800,277.600 326.440,277.600 326.000 C 277.600 325.560,277.780 325.200,278.000 325.200 C 278.220 325.200,278.400 324.750,278.400 324.200 C 278.400 323.650,278.580 323.200,278.800 323.200 C 279.020 323.200,279.200 322.750,279.200 322.200 C 279.200 321.650,279.380 321.200,279.600 321.200 C 279.820 321.200,280.000 320.570,280.000 319.800 C 280.000 319.030,280.180 318.400,280.400 318.400 C 280.620 318.400,280.800 317.590,280.800 316.600 C 280.800 315.610,280.980 314.800,281.200 314.800 C 281.441 314.800,281.597 313.171,281.593 310.700 L 281.586 306.600 279.693 305.724 C 278.652 305.242,276.540 304.281,275.000 303.588 C 251.087 292.834,232.345 278.325,215.766 257.732 C 204.437 243.660,194.014 223.246,188.992 205.293 L 188.291 202.787 186.245 203.050 C 185.120 203.195,183.783 203.468,183.274 203.657 C 182.765 203.846,181.774 204.000,181.072 204.000 C 179.924 204.000,178.073 205.723,162.600 221.200 C 153.142 230.660,145.219 238.400,144.995 238.400 C 144.770 238.400,142.704 236.512,140.404 234.204 L 136.221 230.007 149.384 216.822 C 162.422 203.763,162.537 203.632,161.450 203.219 C 160.847 202.990,159.328 202.331,158.076 201.755 C 156.824 201.179,154.218 200.019,152.284 199.177 L 148.769 197.646 137.795 208.623 C 131.759 214.660,126.588 219.600,126.303 219.600 C 126.019 219.600,123.907 217.715,121.611 215.411 L 117.437 211.223 126.706 201.911 C 131.804 196.790,135.992 192.439,136.013 192.242 C 136.034 192.044,134.645 191.273,132.926 190.528 C 131.207 189.783,129.080 188.837,128.200 188.427 C 127.320 188.017,125.768 187.313,124.752 186.863 L 122.904 186.045 115.752 193.252 C 111.818 197.216,108.316 200.616,107.970 200.806 C 107.485 201.073,106.348 200.158,103.030 196.830 L 98.721 192.508 104.604 186.630 C 107.839 183.398,110.418 180.685,110.335 180.602 C 110.252 180.519,108.118 179.526,105.592 178.396 C 97.970 174.986,95.157 173.552,94.930 172.962 C 94.811 172.653,94.374 172.400,93.957 172.400 C 93.541 172.400,93.200 172.220,93.200 172.000 C 93.200 171.780,92.840 171.600,92.400 171.600 C 91.960 171.600,91.600 171.420,91.600 171.200 C 91.600 170.980,91.240 170.800,90.800 170.800 C 90.360 170.800,90.000 170.620,90.000 170.400 C 90.000 170.180,89.728 170.000,89.395 170.000 C 89.062 170.000,88.477 169.838,88.095 169.641 C 84.551 167.809,80.469 165.994,79.900 165.997 C 79.515 165.999,79.200 165.820,79.200 165.600 C 79.200 165.380,78.946 165.200,78.634 165.200 C 78.323 165.200,76.928 164.641,75.534 163.958 C 74.141 163.275,72.640 162.578,72.200 162.409 C 71.760 162.240,70.500 161.696,69.400 161.200 C 66.407 159.851,65.925 159.673,64.400 159.351 C 61.577 158.755,55.875 158.248,55.564 158.565 M305.467 325.067 C 305.320 325.213,305.200 326.823,305.200 328.643 C 305.200 330.463,305.020 332.064,304.800 332.200 C 304.580 332.336,304.400 333.056,304.400 333.800 C 304.400 334.544,304.220 335.264,304.000 335.400 C 303.780 335.536,303.600 336.087,303.600 336.624 C 303.600 337.161,303.420 337.600,303.200 337.600 C 302.980 337.600,302.800 338.050,302.800 338.600 C 302.800 339.150,302.620 339.600,302.400 339.600 C 302.180 339.600,302.000 339.960,302.000 340.400 C 302.000 340.840,301.820 341.200,301.600 341.200 C 301.380 341.200,301.200 341.560,301.200 342.000 C 301.200 342.440,301.020 342.800,300.800 342.800 C 300.580 342.800,300.400 343.036,300.400 343.325 C 300.400 343.613,300.040 344.236,299.600 344.708 C 299.160 345.180,298.800 345.744,298.800 345.961 C 298.800 346.177,298.485 346.591,298.100 346.879 C 297.715 347.167,296.962 348.033,296.427 348.802 C 295.892 349.571,294.824 350.740,294.054 351.400 C 293.284 352.060,292.062 353.185,291.340 353.900 C 290.618 354.615,289.833 355.200,289.597 355.200 C 289.360 355.200,288.780 355.560,288.308 356.000 C 287.836 356.440,287.213 356.800,286.925 356.800 C 286.636 356.800,286.400 356.980,286.400 357.200 C 286.400 357.420,286.040 357.600,285.600 357.600 C 285.160 357.600,284.800 357.780,284.800 358.000 C 284.800 358.220,284.451 358.400,284.024 358.400 C 283.597 358.400,283.150 358.557,283.032 358.748 C 282.914 358.940,282.228 359.235,281.508 359.404 C 280.789 359.573,280.110 359.747,280.000 359.790 C 277.748 360.676,275.450 361.160,273.200 361.222 C 271.990 361.255,270.415 361.457,269.700 361.672 L 268.400 362.062 268.400 368.686 L 268.400 375.310 274.100 375.112 C 279.642 374.920,284.949 373.735,288.095 371.986 C 288.477 371.774,289.062 371.600,289.395 371.600 C 289.728 371.600,290.000 371.420,290.000 371.200 C 290.000 370.980,290.360 370.800,290.800 370.800 C 291.240 370.800,291.600 370.620,291.600 370.400 C 291.600 370.180,291.960 370.000,292.400 370.000 C 292.840 370.000,293.200 369.842,293.200 369.649 C 293.200 369.455,293.740 369.073,294.400 368.800 C 295.060 368.527,295.600 368.145,295.600 367.951 C 295.600 367.758,295.960 367.600,296.400 367.600 C 296.840 367.600,297.200 367.459,297.200 367.286 C 297.200 367.114,297.695 366.680,298.300 366.322 C 301.035 364.706,306.837 358.991,309.400 355.392 C 309.840 354.774,310.380 354.067,310.600 353.822 C 311.215 353.135,312.424 351.081,312.671 350.300 C 312.793 349.915,313.052 349.600,313.247 349.600 C 313.441 349.600,313.600 349.240,313.600 348.800 C 313.600 348.360,313.780 348.000,314.000 348.000 C 314.220 348.000,314.400 347.640,314.400 347.200 C 314.400 346.760,314.580 346.400,314.800 346.400 C 315.020 346.400,315.200 346.040,315.200 345.600 C 315.200 345.160,315.380 344.800,315.600 344.800 C 315.820 344.800,316.000 344.260,316.000 343.600 C 316.000 342.940,316.180 342.400,316.400 342.400 C 316.620 342.400,316.800 341.961,316.800 341.424 C 316.800 340.887,316.980 340.336,317.200 340.200 C 317.420 340.064,317.600 339.434,317.600 338.800 C 317.600 338.166,317.780 337.536,318.000 337.400 C 318.220 337.264,318.400 336.454,318.400 335.600 C 318.400 334.746,318.580 333.936,318.800 333.800 C 319.027 333.660,319.200 331.663,319.200 329.176 L 319.200 324.800 312.467 324.800 C 308.763 324.800,305.613 324.920,305.467 325.067 M318.064 363.019 C 317.809 363.579,317.600 364.474,317.600 365.007 C 317.600 365.962,316.412 368.424,315.479 369.401 C 315.216 369.676,314.735 370.284,314.412 370.751 C 314.088 371.218,313.676 371.600,313.495 371.600 C 313.314 371.600,312.780 371.960,312.308 372.400 C 311.836 372.840,311.123 373.200,310.725 373.200 C 310.326 373.200,310.000 373.370,310.000 373.578 C 310.000 373.786,309.145 374.011,308.100 374.078 L 306.200 374.200 306.091 381.100 L 305.981 388.000 308.662 388.000 C 311.760 388.000,313.653 387.499,317.894 385.558 C 319.045 385.031,319.990 384.465,319.994 384.300 C 319.997 384.135,320.231 384.000,320.513 384.000 C 321.357 384.000,327.600 377.569,327.600 376.700 C 327.600 376.412,327.960 375.917,328.400 375.600 C 328.840 375.283,329.200 374.703,329.200 374.312 C 329.200 373.920,329.380 373.600,329.600 373.600 C 329.820 373.600,330.000 373.161,330.000 372.624 C 330.000 372.087,330.180 371.536,330.400 371.400 C 330.620 371.264,330.800 370.623,330.800 369.976 C 330.800 369.329,330.980 368.800,331.200 368.800 C 331.435 368.800,331.600 367.400,331.600 365.400 L 331.600 362.000 325.064 362.000 L 318.528 362.000 318.064 363.019 " stroke="none" fill="#6a9bdb" fill-rule="evenodd"></path><path id="path3" d="M361.200 12.800 C 360.883 13.240,360.393 13.600,360.112 13.600 C 359.830 13.600,359.600 13.783,359.600 14.007 C 359.600 14.516,348.082 26.000,347.572 26.000 C 347.367 26.000,347.200 26.159,347.200 26.353 C 347.200 26.813,344.013 30.000,343.553 30.000 C 343.359 30.000,343.200 30.179,343.200 30.397 C 343.200 30.915,330.915 43.200,330.397 43.200 C 330.179 43.200,330.000 43.359,330.000 43.553 C 330.000 44.013,326.813 47.200,326.353 47.200 C 326.159 47.200,326.000 47.367,326.000 47.572 C 326.000 48.082,314.516 59.600,314.007 59.600 C 313.783 59.600,313.600 59.780,313.600 60.000 C 313.600 60.521,310.521 63.600,310.000 63.600 C 309.780 63.600,309.600 63.778,309.600 63.996 C 309.600 64.214,307.170 66.823,304.200 69.793 C 301.230 72.763,298.800 75.508,298.800 75.893 C 298.800 76.290,274.888 100.508,243.600 131.799 C 213.240 162.162,188.400 187.169,188.400 187.371 C 188.400 187.573,209.370 208.682,235.000 234.280 C 270.988 270.222,281.600 281.040,281.600 281.781 C 281.600 282.748,288.919 290.547,289.388 290.079 C 289.504 289.962,289.600 290.167,289.600 290.533 C 289.600 290.900,289.777 291.200,289.994 291.200 C 290.210 291.200,291.515 292.387,292.894 293.839 C 300.601 301.953,299.557 301.737,304.813 296.300 C 306.992 294.045,308.972 292.020,309.213 291.800 C 309.453 291.580,313.150 287.890,317.427 283.600 C 326.715 274.285,324.285 276.715,333.600 267.427 C 337.890 263.150,341.605 259.438,341.855 259.180 C 342.448 258.566,358.566 242.448,359.180 241.855 C 359.603 241.445,374.786 226.229,375.502 225.495 C 375.666 225.328,378.554 222.494,381.920 219.198 L 388.041 213.206 387.968 209.612 C 387.928 207.635,387.739 206.114,387.548 206.232 C 387.356 206.351,387.200 205.123,387.200 203.504 C 387.200 201.885,387.030 200.389,386.822 200.180 C 386.615 199.971,386.408 198.405,386.364 196.700 C 386.320 194.995,386.129 193.600,385.942 193.600 C 385.754 193.600,385.600 192.418,385.600 190.974 C 385.600 189.529,385.430 188.031,385.223 187.643 C 385.016 187.256,384.809 185.648,384.763 184.070 C 384.716 182.491,384.546 181.200,384.383 181.200 C 384.220 181.200,383.977 179.895,383.843 178.300 C 383.709 176.705,383.413 173.870,383.185 172.000 C 382.958 170.130,382.674 167.340,382.555 165.800 C 382.435 164.260,382.172 162.829,381.969 162.620 C 381.766 162.411,381.600 161.027,381.600 159.544 C 381.600 158.061,381.420 156.736,381.200 156.600 C 380.980 156.464,380.800 154.923,380.800 153.176 C 380.800 151.325,380.633 150.000,380.400 150.000 C 380.169 150.000,380.000 148.741,380.000 147.024 C 380.000 145.387,379.820 143.936,379.600 143.800 C 379.380 143.664,379.200 142.123,379.200 140.376 C 379.200 138.525,379.033 137.200,378.800 137.200 C 378.569 137.200,378.400 135.933,378.400 134.200 C 378.400 132.467,378.231 131.200,378.000 131.200 C 377.769 131.200,377.600 129.941,377.600 128.224 C 377.600 126.587,377.420 125.136,377.200 125.000 C 376.980 124.864,376.800 123.313,376.800 121.553 C 376.800 119.521,376.654 118.443,376.400 118.600 C 376.070 118.804,375.716 113.687,375.963 112.270 C 375.994 112.089,375.861 112.039,375.667 112.158 C 375.474 112.278,375.193 110.537,375.045 108.288 C 374.896 106.040,374.721 103.390,374.655 102.400 C 374.590 101.410,374.428 100.330,374.295 100.000 C 373.971 99.198,372.983 90.531,372.995 88.600 C 372.998 88.160,372.885 87.710,372.745 87.600 C 372.604 87.490,372.379 86.140,372.245 84.600 C 372.110 83.060,371.816 80.360,371.592 78.600 C 371.367 76.840,371.007 74.005,370.792 72.300 C 370.576 70.595,370.224 67.805,370.008 66.100 C 369.793 64.395,369.477 61.650,369.306 60.000 C 369.136 58.350,368.870 56.805,368.715 56.566 C 368.560 56.327,368.403 54.666,368.364 52.875 C 368.326 51.083,368.139 49.714,367.947 49.832 C 367.756 49.951,367.600 48.697,367.600 47.047 C 367.600 45.397,367.420 43.936,367.200 43.800 C 366.980 43.664,366.800 42.339,366.800 40.856 C 366.800 39.373,366.632 37.989,366.426 37.780 C 366.220 37.571,366.014 35.960,365.967 34.200 C 365.921 32.440,365.740 30.906,365.565 30.791 C 365.390 30.676,365.210 29.281,365.163 27.691 C 365.117 26.101,364.926 24.800,364.739 24.800 C 364.553 24.800,364.400 23.461,364.400 21.824 C 364.400 20.187,364.220 18.736,364.000 18.600 C 363.780 18.464,363.600 17.139,363.600 15.656 C 363.600 12.207,362.538 10.943,361.200 12.800 M110.270 26.563 C 110.124 26.941,109.824 27.139,109.603 27.002 C 109.381 26.865,109.200 26.918,109.200 27.121 C 109.200 27.617,101.880 35.002,101.500 34.889 C 100.514 34.596,101.960 36.351,106.122 40.498 C 108.720 43.086,110.731 45.387,110.593 45.612 C 110.454 45.836,110.579 45.970,110.870 45.910 C 111.162 45.849,111.351 46.038,111.290 46.330 C 111.230 46.621,111.357 46.750,111.572 46.617 C 111.788 46.484,112.757 47.191,113.726 48.188 C 114.694 49.184,115.422 50.000,115.342 50.000 C 115.263 50.000,115.895 50.630,116.747 51.400 C 117.600 52.170,118.644 52.800,119.068 52.800 C 119.557 52.800,132.342 65.289,153.962 86.884 L 188.084 120.968 187.823 123.275 C 186.555 134.487,199.652 141.440,208.076 134.026 C 216.574 126.545,211.325 113.177,199.800 112.952 C 198.040 112.917,196.371 112.869,196.091 112.844 C 194.558 112.711,127.952 44.997,128.175 43.800 C 128.337 42.929,128.291 42.765,128.006 43.200 C 127.617 43.793,127.389 43.339,127.553 42.300 C 127.579 42.135,127.375 42.045,127.100 42.100 C 126.825 42.155,126.649 41.962,126.710 41.670 C 126.770 41.379,126.650 41.246,126.442 41.374 C 125.950 41.678,124.722 40.450,125.026 39.958 C 125.154 39.750,125.021 39.630,124.730 39.690 C 124.438 39.751,124.245 39.575,124.300 39.300 C 124.355 39.025,124.175 38.845,123.900 38.900 C 123.625 38.955,123.445 38.775,123.500 38.500 C 123.555 38.225,123.442 38.045,123.249 38.100 C 122.805 38.226,113.765 29.159,113.900 28.723 C 113.955 28.545,113.775 28.445,113.500 28.500 C 113.225 28.555,113.051 28.358,113.113 28.063 C 113.174 27.767,113.003 27.599,112.731 27.690 C 112.459 27.780,111.853 27.409,111.385 26.865 C 110.630 25.987,110.504 25.952,110.270 26.563 M325.107 93.707 C 327.358 95.966,329.200 97.990,329.200 98.206 C 329.200 98.850,255.053 172.800,254.408 172.800 C 253.624 172.800,246.000 165.190,246.000 164.408 C 246.000 163.744,319.944 89.600,320.606 89.600 C 320.831 89.600,322.856 91.448,325.107 93.707 M243.377 174.500 C 248.927 179.765,249.046 178.685,242.151 185.636 C 238.897 188.916,235.978 191.600,235.663 191.600 C 234.932 191.600,227.691 184.518,227.362 183.480 C 227.138 182.774,238.349 170.800,239.233 170.800 C 239.367 170.800,241.232 172.465,243.377 174.500 " stroke="none" fill="#04b37b" fill-rule="evenodd"></path><path id="path4" d="M199.142 200.191 C 199.049 200.284,196.641 200.833,193.790 201.410 C 187.605 202.662,188.136 202.233,188.991 205.289 C 195.730 229.378,208.984 251.993,227.349 270.735 C 240.939 284.605,256.539 295.356,275.000 303.576 C 276.540 304.261,278.492 305.177,279.338 305.611 C 280.184 306.045,281.039 306.400,281.238 306.400 C 281.446 306.400,281.600 301.218,281.600 294.201 L 281.600 282.002 280.121 280.365 C 277.713 277.700,200.467 200.670,199.864 200.332 C 199.560 200.162,199.235 200.098,199.142 200.191 " stroke="none" fill="#fadbcb" fill-rule="evenodd"></path><path id="path5" d="M34.829 167.395 C 34.373 167.612,34.000 167.927,34.000 168.095 C 34.000 168.263,33.640 168.400,33.200 168.400 C 32.760 168.400,32.400 168.580,32.400 168.800 C 32.400 169.020,32.040 169.200,31.600 169.200 C 31.160 169.200,30.800 169.358,30.800 169.551 C 30.800 169.745,30.260 170.127,29.600 170.400 C 28.940 170.673,28.400 171.044,28.400 171.223 C 28.400 171.402,27.770 171.776,27.000 172.054 C 26.230 172.333,25.600 172.705,25.600 172.880 C 25.600 173.056,25.364 173.200,25.075 173.200 C 24.787 173.200,24.164 173.560,23.692 174.000 C 23.220 174.440,22.638 174.800,22.399 174.800 C 21.843 174.800,20.000 176.630,20.000 177.182 C 20.000 177.412,19.820 177.600,19.600 177.600 C 19.380 177.600,19.200 177.949,19.200 178.376 C 19.200 178.803,19.020 179.264,18.800 179.400 C 18.269 179.728,18.269 187.600,18.800 187.600 C 19.020 187.600,19.200 187.902,19.200 188.270 C 19.200 188.639,20.651 190.349,22.423 192.070 C 24.196 193.792,25.552 195.200,25.435 195.200 C 25.237 195.200,36.379 206.316,40.771 210.500 C 41.868 211.545,42.692 212.400,42.602 212.400 C 42.181 212.400,54.802 224.729,56.206 225.691 C 58.724 227.414,176.208 345.200,175.409 345.200 C 175.231 345.200,186.669 356.592,190.771 360.500 C 191.868 361.545,192.689 362.400,192.595 362.400 C 192.386 362.400,204.405 374.305,207.132 376.800 C 208.215 377.790,209.022 378.735,208.927 378.900 C 208.831 379.065,209.018 379.200,209.343 379.200 C 209.668 379.200,209.996 379.388,210.073 379.618 C 210.149 379.848,210.602 380.065,211.078 380.101 C 211.555 380.137,211.856 380.309,211.749 380.483 C 211.641 380.657,211.934 380.800,212.400 380.800 C 212.866 380.800,213.136 380.980,213.000 381.200 C 212.848 381.447,213.529 381.600,214.776 381.600 C 215.889 381.600,216.800 381.777,216.800 381.993 C 216.800 382.209,217.700 382.365,218.800 382.341 C 219.900 382.316,220.800 382.139,220.800 381.948 C 220.800 381.756,221.533 381.600,222.429 381.600 C 223.347 381.600,224.320 381.337,224.661 380.996 C 224.993 380.664,225.430 380.495,225.632 380.620 C 225.835 380.745,226.000 380.657,226.000 380.424 C 226.000 380.191,226.273 380.000,226.607 380.000 C 226.941 380.000,228.336 378.918,229.707 377.594 C 231.078 376.271,233.532 373.914,235.160 372.355 L 238.119 369.521 136.889 268.261 C 46.111 177.455,35.573 167.041,34.829 167.395 M104.580 186.654 L 98.721 192.508 103.030 196.830 C 106.359 200.169,107.483 201.073,107.970 200.802 C 109.260 200.084,122.492 186.476,122.341 186.022 C 122.254 185.763,120.657 184.869,118.792 184.036 C 116.926 183.203,114.555 182.134,113.522 181.660 C 110.770 180.400,110.929 180.311,104.580 186.654 M127.005 201.612 L 117.437 211.222 121.611 215.411 C 123.907 217.715,126.019 219.600,126.303 219.600 C 126.821 219.600,148.996 197.661,148.737 197.406 C 148.509 197.181,138.261 192.533,137.387 192.257 C 136.719 192.047,134.859 193.723,127.005 201.612 M149.401 216.805 L 136.221 230.007 140.404 234.204 C 142.704 236.512,144.770 238.400,144.995 238.400 C 145.219 238.400,153.143 230.640,162.602 221.155 C 175.792 207.928,179.520 203.980,178.600 204.211 C 177.940 204.377,176.680 204.650,175.800 204.819 C 174.920 204.988,173.120 205.337,171.800 205.594 C 168.571 206.225,168.877 206.252,166.400 205.118 C 165.190 204.564,163.836 203.996,163.390 203.857 C 162.725 203.649,160.226 205.962,149.401 216.805 " stroke="none" fill="#2c74cc" fill-rule="evenodd"></path><path id="path6" d="M283.388 127.212 L 246.242 164.359 250.342 168.459 L 254.441 172.558 291.587 135.379 L 328.733 98.200 324.633 94.133 L 320.533 90.066 283.388 127.212 M233.426 177.174 L 227.544 183.066 231.639 187.161 L 235.734 191.256 241.467 185.533 C 244.620 182.386,247.200 179.679,247.200 179.519 C 247.200 179.359,245.424 177.440,243.254 175.255 L 239.309 171.281 233.426 177.174 M201.983 201.700 C 202.964 202.745,203.819 203.600,203.883 203.600 C 204.184 203.600,203.866 203.241,202.100 201.583 L 200.200 199.800 201.983 201.700 M209.400 209.200 C 210.928 210.740,212.269 212.000,212.379 212.000 C 212.489 212.000,211.328 210.740,209.800 209.200 C 208.272 207.660,206.931 206.400,206.821 206.400 C 206.711 206.400,207.872 207.660,209.400 209.200 M212.800 212.510 C 212.800 212.571,214.195 213.966,215.900 215.610 L 219.000 218.600 216.010 215.500 C 213.233 212.621,212.800 212.217,212.800 212.510 M220.783 220.500 C 221.764 221.545,222.619 222.400,222.683 222.400 C 222.984 222.400,222.666 222.041,220.900 220.383 L 219.000 218.600 220.783 220.500 M227.000 226.800 C 229.192 229.000,231.075 230.800,231.185 230.800 C 231.295 230.800,229.592 229.000,227.400 226.800 C 225.208 224.600,223.325 222.800,223.215 222.800 C 223.105 222.800,224.808 224.600,227.000 226.800 M231.600 231.310 C 231.600 231.371,232.995 232.766,234.700 234.410 L 237.800 237.400 234.810 234.300 C 232.033 231.421,231.600 231.017,231.600 231.310 M241.800 241.600 C 243.992 243.800,245.875 245.600,245.985 245.600 C 246.095 245.600,244.392 243.800,242.200 241.600 C 240.008 239.400,238.125 237.600,238.015 237.600 C 237.905 237.600,239.608 239.400,241.800 241.600 M247.983 247.700 C 248.964 248.745,249.819 249.600,249.883 249.600 C 250.184 249.600,249.866 249.241,248.100 247.583 L 246.200 245.800 247.983 247.700 M251.983 251.700 C 253.641 253.466,254.000 253.784,254.000 253.483 C 254.000 253.419,253.145 252.564,252.100 251.583 L 250.200 249.800 251.983 251.700 M259.400 259.200 C 260.928 260.740,262.269 262.000,262.379 262.000 C 262.489 262.000,261.328 260.740,259.800 259.200 C 258.272 257.660,256.931 256.400,256.821 256.400 C 256.711 256.400,257.872 257.660,259.400 259.200 M262.800 262.510 C 262.800 262.571,264.195 263.966,265.900 265.610 L 269.000 268.600 266.010 265.500 C 263.233 262.621,262.800 262.217,262.800 262.510 M270.783 270.500 C 272.441 272.266,272.800 272.584,272.800 272.283 C 272.800 272.219,271.945 271.364,270.900 270.383 L 269.000 268.600 270.783 270.500 M277.000 276.800 C 279.192 279.000,281.075 280.800,281.185 280.800 C 281.295 280.800,279.592 279.000,277.400 276.800 C 275.208 274.600,273.325 272.800,273.215 272.800 C 273.105 272.800,274.808 274.600,277.000 276.800 " stroke="none" fill="#44ca9b" fill-rule="evenodd"></path><path id="path7" d="M111.487 26.968 C 112.269 28.014,112.552 28.063,112.178 27.088 C 112.046 26.744,111.676 26.361,111.356 26.239 C 110.918 26.070,110.950 26.251,111.487 26.968 M119.200 34.293 C 119.200 34.486,119.873 35.263,120.696 36.022 C 121.988 37.212,122.056 37.238,121.196 36.218 C 119.546 34.261,119.200 33.927,119.200 34.293 M101.200 36.203 C 101.200 36.572,115.127 50.340,115.313 50.154 C 115.498 49.969,101.766 36.000,101.399 36.000 C 101.290 36.000,101.200 36.091,101.200 36.203 M123.818 39.140 C 124.688 40.097,125.985 41.474,126.700 42.200 C 127.415 42.926,128.000 43.859,128.000 44.274 C 128.000 45.091,195.202 112.767,196.091 112.844 C 196.371 112.869,198.040 112.917,199.800 112.952 C 211.325 113.177,216.574 126.545,208.076 134.026 C 199.652 141.440,186.555 134.487,187.823 123.275 L 188.084 120.968 153.962 86.884 C 131.474 64.422,119.566 52.800,119.039 52.800 C 118.598 52.800,117.603 52.215,116.828 51.500 C 115.909 50.654,115.693 50.545,116.209 51.188 C 117.563 52.877,117.926 53.200,118.472 53.200 C 118.764 53.200,134.384 68.583,153.185 87.385 L 187.368 121.570 187.405 124.885 C 187.487 132.395,192.710 137.600,200.163 137.600 C 201.839 137.600,203.523 137.441,203.905 137.247 C 204.287 137.052,205.119 136.649,205.752 136.351 C 217.893 130.638,213.213 112.433,199.597 112.406 L 196.594 112.400 162.397 78.019 C 143.589 59.110,126.858 42.235,125.218 40.519 C 123.578 38.804,122.948 38.183,123.818 39.140 M298.400 75.914 C 298.400 76.086,273.466 101.151,242.991 131.614 C 212.516 162.076,187.631 187.221,187.691 187.491 C 187.841 188.168,199.687 200.046,199.950 199.783 C 200.067 199.667,197.515 196.921,194.281 193.681 C 191.046 190.441,188.400 187.613,188.400 187.397 C 188.400 187.181,213.240 162.162,243.600 131.799 C 291.797 83.597,299.623 75.600,298.600 75.600 C 298.490 75.600,298.400 75.741,298.400 75.914 " stroke="none" fill="#279470" fill-rule="evenodd"></path><path id="path8" d="M283.099 126.701 C 262.695 147.106,246.000 164.075,246.000 164.408 C 246.000 165.190,253.624 172.800,254.408 172.800 C 255.053 172.800,329.200 98.850,329.200 98.206 C 329.200 97.683,321.128 89.600,320.606 89.600 C 320.382 89.600,303.504 106.295,283.099 126.701 M291.587 135.379 L 254.441 172.558 250.342 168.459 L 246.242 164.359 283.388 127.212 L 320.533 90.066 324.633 94.133 L 328.733 98.200 291.587 135.379 M233.052 176.748 C 228.343 181.465,227.165 182.859,227.362 183.480 C 227.691 184.518,234.932 191.600,235.663 191.600 C 236.857 191.600,248.103 179.740,247.672 178.936 C 247.245 178.139,239.633 170.800,239.233 170.800 C 239.099 170.800,236.318 173.477,233.052 176.748 M247.200 179.519 C 247.200 179.679,244.620 182.386,241.467 185.533 L 235.734 191.256 231.639 187.161 L 227.544 183.066 233.426 177.174 L 239.309 171.281 243.254 175.255 C 245.424 177.440,247.200 179.359,247.200 179.519 " stroke="none" fill="#34c494" fill-rule="evenodd"></path></g></svg>