<?xml version="1.0" encoding="utf-8"?>
<svg xml:space="preserve" viewBox="0 0 100 100" y="0" x="0" xmlns="http://www.w3.org/2000/svg" id="Layer_1"
     version="1.1" width="200px" height="200px" xmlns:xlink="http://www.w3.org/1999/xlink"
     style="width:100%;height:100%;background-size:initial;background-repeat-y:initial;background-repeat-x:initial;background-position-y:initial;background-position-x:initial;background-origin:initial;background-color:initial;background-clip:initial;background-attachment:initial;">
    <g class="ldl-scale" style="transform-origin:50% 50%;transform:rotate(0deg) scale(1, 1);" >
        <g style="transform-origin:center" >
            <path fill="#829985" d="M69.8 82.6c-1.2 0-2.3-.6-2.9-1.7-.9-1.6-.4-3.7 1.2-4.6 9.4-5.4 15.2-15.5 15.2-26.3s-5.8-20.9-15.2-26.3c-1.6-.9-2.2-3-1.2-4.6.9-1.6 3-2.2 4.6-1.2C82.9 24.5 90 36.8 90 50s-7.1 25.5-18.6 32.2c-.5.3-1.1.4-1.6.4z" style="fill:rgb(130, 153, 133);" ></path>
            <animateTransform attributeType="XML" attributeName="transform" type="scale" values="1;1.05;1" begin="0.6s" dur="0.9s" repeatCount="indefinite"/>
        </g>
        <g style="transform-origin:center">
            <path fill="#a8b980" d="M63.4 71.6c-1.2 0-2.3-.6-2.9-1.7-.9-1.6-.4-3.7 1.2-4.6 5.5-3.2 8.9-9.1 8.9-15.4s-3.4-12.2-8.9-15.4c-1.6-.9-2.2-3-1.2-4.6.9-1.6 3-2.2 4.6-1.2 7.5 4.4 12.2 12.5 12.2 21.2s-4.7 16.8-12.2 21.2c-.5.4-1.1.5-1.7.5z" style="fill:rgb(168, 185, 128);" ></path>
            <animateTransform attributeType="XML" attributeName="transform" type="scale" values="1;1.05;1" begin="0.3s" dur="0.9s" repeatCount="indefinite"/>
        </g>
        <g style="transform-origin:center">
            <path fill="#f0af6b" d="M57.1 60.7c-1.2 0-2.3-.6-2.9-1.7-.9-1.6-.4-3.7 1.2-4.6C57 53.5 58 51.8 58 50c0-1.8-1-3.5-2.6-4.4-1.6-.9-2.2-3-1.2-4.6.9-1.6 3-2.2 4.6-1.2 3.6 2.1 5.9 6 5.9 10.2s-2.3 8.1-5.9 10.2c-.6.3-1.1.5-1.7.5z" style="fill:rgb(240, 175, 107);" ></path>
            <animateTransform attributeType="XML" attributeName="transform" type="scale" values="1;1.05;1" begin="0s" dur="0.9s" repeatCount="indefinite"/>
        </g>
        <path fill="#333"
              d="M44.2 24.3L28.7 36.6l-.3.3H11.9c-1.1 0-1.9.9-1.9 1.9v22.3c0 1.1.9 1.9 1.9 1.9h16.4l.3.3 15.5 12.4c1.3 1 3.1.1 3.1-1.5V25.8c.1-1.6-1.7-2.5-3-1.5z"
              style="fill:rgb(51, 51, 51);">
        </path>
    </g><!-- generated by https://loading.io/ -->
</svg>